<svg xmlns="http://www.w3.org/2000/svg" version="1.1" xmlns:xlink="http://www.w3.org/1999/xlink" xmlns:svgjs="http://svgjs.com/svgjs" viewBox="0 0 140 140" width="140" height="140"><g transform="matrix(5.833333333333333,0,0,5.833333333333333,0,0)"><path d="M5.5,11h13a2,2,0,0,0,2-2V2a2,2,0,0,0-2-2H5.5a2,2,0,0,0-2,2V9A2,2,0,0,0,5.5,11ZM16,4a1.5,1.5,0,1,1-1.5,1.5A1.5,1.5,0,0,1,16,4ZM8,4A1.5,1.5,0,1,1,6.5,5.5,1.5,1.5,0,0,1,8,4Z" fill="#000000" stroke="none" stroke-linecap="round" stroke-linejoin="round" stroke-width="0"></path><path d="M10.5,12.5a1,1,0,0,0,0,2h3a1,1,0,0,0,0-2Z" fill="#000000" stroke="none" stroke-linecap="round" stroke-linejoin="round" stroke-width="0"></path><path d="M23.3,9.867a1,1,0,1,0-1.6,1.2,1.5,1.5,0,0,1-2.4,1.8,1,1,0,1,0-1.6,1.2,3.45,3.45,0,0,0,2.563,1.387.251.251,0,0,1,.226.306,3.022,3.022,0,0,1-1.082,1.705l-.387.3a.315.315,0,0,1-.439-.051A4.613,4.613,0,0,0,14.979,16H9.021a4.613,4.613,0,0,0-3.6,1.722.315.315,0,0,1-.439.051l-.387-.3a3.022,3.022,0,0,1-1.082-1.7.251.251,0,0,1,.226-.306A3.449,3.449,0,0,0,6.3,14.073a1,1,0,0,0-1.6-1.2,1.5,1.5,0,0,1-2.4-1.8,1,1,0,1,0-1.6-1.2,3.5,3.5,0,0,0,.415,4.664,1,1,0,0,1,.318.7,5.041,5.041,0,0,0,1.927,3.816l.649.5a1,1,0,0,1,.384.84,4.675,4.675,0,0,0,.1,1.215c.009.038.019.076.032.114l.435,1.265A1.5,1.5,0,0,0,6.379,24H17.621a1.5,1.5,0,0,0,1.418-1.012l.435-1.265c.013-.038.023-.076.032-.114a4.675,4.675,0,0,0,.1-1.215,1,1,0,0,1,.384-.84l.649-.5a5.041,5.041,0,0,0,1.927-3.816,1,1,0,0,1,.318-.7A3.5,3.5,0,0,0,23.3,9.867Z" fill="#000000" stroke="none" stroke-linecap="round" stroke-linejoin="round" stroke-width="0"></path></g></svg>