<svg xmlns="http://www.w3.org/2000/svg" version="1.1" xmlns:xlink="http://www.w3.org/1999/xlink" xmlns:svgjs="http://svgjs.com/svgjs" viewBox="0 0 140 140" width="140" height="140"><g transform="matrix(5.833333333333333,0,0,5.833333333333333,0,0)"><path d="M5.248,7.635A1,1,0,1,0,6.633,9.077a.753.753,0,0,1,1.016,0A1,1,0,1,0,9.033,7.635,2.759,2.759,0,0,0,5.248,7.635Z" fill="#000000" stroke="none" stroke-linecap="round" stroke-linejoin="round" stroke-width="0"></path><path d="M11.461,6.743a1,1,0,0,0-.028-1.414,6.253,6.253,0,0,0-8.584,0A1,1,0,0,0,4.234,6.771a4.236,4.236,0,0,1,5.814,0A1,1,0,0,0,11.461,6.743Z" fill="#000000" stroke="none" stroke-linecap="round" stroke-linejoin="round" stroke-width="0"></path><path d="M1.833,4.465a7.733,7.733,0,0,1,10.615,0,1,1,0,1,0,1.385-1.442,9.75,9.75,0,0,0-13.385,0A1,1,0,0,0,1.833,4.465Z" fill="#000000" stroke="none" stroke-linecap="round" stroke-linejoin="round" stroke-width="0"></path><path d="M4.284,19.836a.25.25,0,0,0-.245-.2H3.891a1,1,0,0,1-1-1v-5a1,1,0,0,1,1-1h.148a.25.25,0,0,0,.245-.2l.1-.5a.25.25,0,0,0-.245-.3H.641a.5.5,0,0,0-.5.5v8a.5.5,0,0,0,.5.5h3.5a.249.249,0,0,0,.245-.3Z" fill="#000000" stroke="none" stroke-linecap="round" stroke-linejoin="round" stroke-width="0"></path><path d="M23.838,18.809l-.819-6.192a3.479,3.479,0,0,0-3.462-2.981H15.469a5.5,5.5,0,0,0-2.729.725L10.624,11.57a.5.5,0,0,1-.249.066H8.64a.251.251,0,0,0-.245.3l.1.5a.25.25,0,0,0,.245.2h.148a1,1,0,0,1,1,1v5a1,1,0,0,1-1,1H8.743a.25.25,0,0,0-.245.2l-.1.5a.251.251,0,0,0,.052.209.248.248,0,0,0,.193.091h1.533a.5.5,0,0,1,.384.181l.7.841a5.483,5.483,0,0,0,4.225,1.978h2.158a2.5,2.5,0,0,0,2.406-1.817.251.251,0,0,1,.241-.183H21.36a2.5,2.5,0,0,0,2.478-2.827Z" fill="#000000" stroke="none" stroke-linecap="round" stroke-linejoin="round" stroke-width="0"></path><path d="M4.359 14.136 L8.359 14.136 L8.359 18.136 L4.359 18.136 Z" fill="#000000" stroke="none" stroke-linecap="round" stroke-linejoin="round" stroke-width="0"></path></g></svg>