<svg xmlns="http://www.w3.org/2000/svg" version="1.1" xmlns:xlink="http://www.w3.org/1999/xlink" xmlns:svgjs="http://svgjs.com/svgjs" viewBox="0 0 140 140" width="140" height="140"><g transform="matrix(5.833333333333333,0,0,5.833333333333333,0,0)"><path d="M21.5,15A1.5,1.5,0,0,0,20,13.5H18.75a.25.25,0,0,1-.25-.25V11.5a1.5,1.5,0,0,0-1.5-1.5H7a1.5,1.5,0,0,0-1.5,1.5v1.75a.25.25,0,0,1-.25.25H4A1.5,1.5,0,0,0,2.5,15v2.5A1.5,1.5,0,0,0,4,19H5.75a.25.25,0,0,1,.25.25V23a1,1,0,0,0,2,0v-3.75A.25.25,0,0,1,8.25,19h2.5a.25.25,0,0,1,.25.25V23a1,1,0,1,0,2,0v-3.75a.25.25,0,0,1,.25-.25h2.5a.25.25,0,0,1,.25.25V23a1,1,0,1,0,2,0v-3.75a.25.25,0,0,1,.25-.25H20a1.5,1.5,0,0,0,1.5-1.5Z" fill="#000000" stroke="none" stroke-linecap="round" stroke-linejoin="round" stroke-width="0"></path><path d="M12.351,8a.251.251,0,0,0,.246-.3L11.476,1.9l0-.015A2.5,2.5,0,1,0,6.631,3.132l0,.01L8.01,7.816A.25.25,0,0,0,8.25,8Z" fill="#000000" stroke="none" stroke-linecap="round" stroke-linejoin="round" stroke-width="0"></path></g></svg>