<svg xmlns="http://www.w3.org/2000/svg" version="1.1" xmlns:xlink="http://www.w3.org/1999/xlink" xmlns:svgjs="http://svgjs.com/svgjs" viewBox="0 0 140 140" width="140" height="140"><g transform="matrix(5.833333333333333,0,0,5.833333333333333,0,0)"><path d="M24,3a3,3,0,0,0-3-3H3A3,3,0,0,0,0,3V21a3,3,0,0,0,3,3H21a3,3,0,0,0,3-3ZM9.654,2a.966.966,0,0,1,1.692,0,.969.969,0,0,1,.154.5.969.969,0,0,1-.154.5A.966.966,0,0,1,9.654,3,.969.969,0,0,1,9.5,2.5.969.969,0,0,1,9.654,2Zm-3.5,0A.966.966,0,0,1,7.846,2,.969.969,0,0,1,8,2.5a.969.969,0,0,1-.154.5A.966.966,0,0,1,6.154,3,.969.969,0,0,1,6,2.5.969.969,0,0,1,6.154,2Zm-3.562.092A1,1,0,0,1,3.5,1.5a.985.985,0,0,1,.846.5.969.969,0,0,1,.154.5.969.969,0,0,1-.154.5A.966.966,0,0,1,2.654,3,.969.969,0,0,1,2.5,2.5.979.979,0,0,1,2.592,2.092ZM3,22a1,1,0,0,1-1-1V5.25A.25.25,0,0,1,2.25,5h6a.25.25,0,0,1,.25.25v16.5a.25.25,0,0,1-.25.25Zm19-1a1,1,0,0,1-1,1H10.25a.25.25,0,0,1-.25-.25V5.25A.25.25,0,0,1,10.25,5h11.5a.25.25,0,0,1,.25.25Z" fill="#000000" stroke="none" stroke-linecap="round" stroke-linejoin="round" stroke-width="0"></path><path d="M12.500 7.250 L19.500 7.250 L19.500 12.750 L12.500 12.750 Z" fill="#000000" stroke="none" stroke-linecap="round" stroke-linejoin="round" stroke-width="0"></path><path d="M18.75,15.5h-5.5a.75.75,0,0,0,0,1.5h5.5a.75.75,0,0,0,0-1.5Z" fill="#000000" stroke="none" stroke-linecap="round" stroke-linejoin="round" stroke-width="0"></path><path d="M3.5,7.25A.75.75,0,0,0,4.25,8h2a.75.75,0,0,0,0-1.5h-2A.75.75,0,0,0,3.5,7.25Z" fill="#000000" stroke="none" stroke-linecap="round" stroke-linejoin="round" stroke-width="0"></path><path d="M4.25,12h2a.75.75,0,0,0,0-1.5h-2a.75.75,0,0,0,0,1.5Z" fill="#000000" stroke="none" stroke-linecap="round" stroke-linejoin="round" stroke-width="0"></path><path d="M4.25,16h2a.75.75,0,0,0,0-1.5h-2a.75.75,0,0,0,0,1.5Z" fill="#000000" stroke="none" stroke-linecap="round" stroke-linejoin="round" stroke-width="0"></path><path d="M4.25,20h2a.75.75,0,0,0,0-1.5h-2a.75.75,0,0,0,0,1.5Z" fill="#000000" stroke="none" stroke-linecap="round" stroke-linejoin="round" stroke-width="0"></path></g></svg>