<svg xmlns="http://www.w3.org/2000/svg" version="1.1" xmlns:xlink="http://www.w3.org/1999/xlink" xmlns:svgjs="http://svgjs.com/svgjs" viewBox="0 0 140 140" width="140" height="140"><g transform="matrix(5.833333333333333,0,0,5.833333333333333,0,0)"><path d="M23,22H13.713a.25.25,0,0,1-.25-.235A12.5,12.5,0,0,0,2.226,10.071.251.251,0,0,1,2,9.822V1A1,1,0,0,0,0,1V23a1,1,0,0,0,1,1H23a1,1,0,0,0,0-2ZM7.736,14.466a.247.247,0,0,1,.089.18.25.25,0,0,1-.073.188L5.793,16.793a1,1,0,0,0,1.414,1.414l1.9-1.9a.249.249,0,0,1,.379.03,10.415,10.415,0,0,1,1.974,5.393.25.25,0,0,1-.249.268H4.018a.25.25,0,0,1-.177-.427l.866-.866a1,1,0,0,0-1.414-1.414l-.866.866A.25.25,0,0,1,2,19.982V12.329a.253.253,0,0,1,.084-.187.257.257,0,0,1,.2-.061A10.44,10.44,0,0,1,7.736,14.466Z" fill="#000000" stroke="none" stroke-linecap="round" stroke-linejoin="round" stroke-width="0"></path><path d="M12.207,13.207l2-2a1,1,0,0,0-1.414-1.414l-2,2a1,1,0,0,0,1.414,1.414Z" fill="#000000" stroke="none" stroke-linecap="round" stroke-linejoin="round" stroke-width="0"></path><path d="M17.207,8.207l2-2a1,1,0,1,0-1.414-1.414l-2,2a1,1,0,0,0,1.414,1.414Z" fill="#000000" stroke="none" stroke-linecap="round" stroke-linejoin="round" stroke-width="0"></path><path d="M22.207,3.207l1.5-1.5A1,1,0,0,0,22.293.293l-1.5,1.5a1,1,0,0,0,1.414,1.414Z" fill="#000000" stroke="none" stroke-linecap="round" stroke-linejoin="round" stroke-width="0"></path></g></svg>