<svg xmlns="http://www.w3.org/2000/svg" version="1.1" xmlns:xlink="http://www.w3.org/1999/xlink" xmlns:svgjs="http://svgjs.com/svgjs" viewBox="0 0 140 140" width="140" height="140"><g transform="matrix(5.833333333333333,0,0,5.833333333333333,0,0)"><path d="M19.567,3.017A10.771,10.771,0,0,0,12,0C6.7,0,1,3.755,1,12c0,3.713,1.942,8.969,2.778,11.057A1.492,1.492,0,0,0,5.17,24H18.829a1.5,1.5,0,0,0,1.394-.943C21.058,20.969,23,15.713,23,12A12.171,12.171,0,0,0,19.567,3.017ZM12,3a1,1,0,1,1-1,1A1,1,0,0,1,12,3ZM6.343,5.343a1,1,0,1,1,0,1.415A1,1,0,0,1,6.343,5.343ZM5,12a1,1,0,1,1,1-1A1,1,0,0,1,5,12Zm2.757,4.657a1,1,0,1,1,0-1.414A1,1,0,0,1,7.757,16.657ZM12,19a1,1,0,1,1,1-1A1,1,0,0,1,12,19Zm0-4a4,4,0,0,1-1.715-7.615A.5.5,0,0,1,11,7.836V9.5a1,1,0,0,0,2,0V7.837a.5.5,0,0,1,.715-.452A4,4,0,0,1,12,15Zm5.657,1.657a1,1,0,1,1,0-1.414A1,1,0,0,1,17.657,16.657Zm0-9.9a1,1,0,1,1,0-1.415A1,1,0,0,1,17.657,6.758ZM19,12a1,1,0,1,1,1-1A1,1,0,0,1,19,12Z" fill="#000000" stroke="none" stroke-linecap="round" stroke-linejoin="round" stroke-width="0"></path></g></svg>