<svg xmlns="http://www.w3.org/2000/svg" version="1.1" xmlns:xlink="http://www.w3.org/1999/xlink" xmlns:svgjs="http://svgjs.com/svgjs" viewBox="0 0 140 140" width="140" height="140"><g transform="matrix(5.833333333333333,0,0,5.833333333333333,0,0)"><path d="M7.447,22.276A.5.5,0,0,0,7,22H3.617a.5.5,0,0,0-.447.276l-.5,1A.5.5,0,0,0,3.117,24H7.5a.5.5,0,0,0,.448-.724Z" fill="#000000" stroke="none" stroke-linecap="round" stroke-linejoin="round" stroke-width="0"></path><path d="M20.447,22.276A.5.5,0,0,0,20,22H17a.5.5,0,0,0-.448.276l-.5,1A.5.5,0,0,0,16.5,24h4a.5.5,0,0,0,.448-.724Z" fill="#000000" stroke="none" stroke-linecap="round" stroke-linejoin="round" stroke-width="0"></path><path d="M15,14h4a.5.5,0,0,0,.5-.5v-1a1,1,0,0,0-1-1h-3a1,1,0,0,0-1,1v1A.5.5,0,0,0,15,14Z" fill="#000000" stroke="none" stroke-linecap="round" stroke-linejoin="round" stroke-width="0"></path><path d="M21.5,15h-10a.5.5,0,0,1-.5-.5V9.082a.5.5,0,0,1,.3-.458,4.5,4.5,0,1,0-3.6,0,.5.5,0,0,1,.3.458V14.5a.5.5,0,0,1-.5.5h-5a1,1,0,0,0-1,1v4.5A.5.5,0,0,0,2,21H22a.5.5,0,0,0,.5-.5V16A1,1,0,0,0,21.5,15Z" fill="#000000" stroke="none" stroke-linecap="round" stroke-linejoin="round" stroke-width="0"></path></g></svg>