<svg xmlns="http://www.w3.org/2000/svg" version="1.1" xmlns:xlink="http://www.w3.org/1999/xlink" xmlns:svgjs="http://svgjs.com/svgjs" viewBox="0 0 140 140" width="140" height="140"><g transform="matrix(5.833333333333333,0,0,5.833333333333333,0,0)"><path d="M23.5,2a2,2,0,0,0-2-2H2.5a2,2,0,0,0-2,2V14a2,2,0,0,0,2,2h19a2,2,0,0,0,2-2Zm-2,11.5a.5.5,0,0,1-.5.5H3a.5.5,0,0,1-.5-.5V2.5A.5.5,0,0,1,3,2H21a.5.5,0,0,1,.5.5Z" fill="#000000" stroke="none" stroke-linecap="round" stroke-linejoin="round" stroke-width="0"></path><path d="M22.327,22.746,21.08,18.258a1,1,0,0,0-.97-.757H3.891a1,1,0,0,0-.968.745L1.67,22.759A1,1,0,0,0,2.641,24H21.36a1.009,1.009,0,0,0,.788-.385.994.994,0,0,0,.182-.857ZM16.5,21.751a.5.5,0,0,1-.5.5H8a.5.5,0,0,1,0-1h8A.5.5,0,0,1,16.5,21.751Z" fill="#000000" stroke="none" stroke-linecap="round" stroke-linejoin="round" stroke-width="0"></path></g></svg>