<svg xmlns="http://www.w3.org/2000/svg" version="1.1" xmlns:xlink="http://www.w3.org/1999/xlink" xmlns:svgjs="http://svgjs.com/svgjs" viewBox="0 0 140 140" width="140" height="140"><g transform="matrix(5.833333333333333,0,0,5.833333333333333,0,0)"><path d="M12,2A12.013,12.013,0,0,0,0,14v2.5A2.5,2.5,0,0,0,2.5,19h19A2.5,2.5,0,0,0,24,16.5V14A12.013,12.013,0,0,0,12,2Zm9.5,13.25h-2a.75.75,0,0,1,0-1.5h2a.75.75,0,0,1,0,1.5Zm-2.754-3.816a.751.751,0,0,1-.376-1.4l1.732-1a.75.75,0,1,1,.75,1.3l-1.732,1A.739.739,0,0,1,18.746,11.434ZM14.75,14a2.746,2.746,0,1,1-1.937-2.628l3.741-5.758a.75.75,0,1,1,1.258.818l-3.743,5.76A2.734,2.734,0,0,1,14.75,14ZM8.192,8.4A.757.757,0,0,1,7.167,8.13l-1-1.732a.75.75,0,1,1,1.3-.75l1,1.732A.749.749,0,0,1,8.192,8.4ZM4.88,11.332l-1.732-1a.75.75,0,0,1,.75-1.3l1.732,1A.749.749,0,0,1,5.9,11.058.76.76,0,0,1,4.88,11.332ZM5.25,14.5a.75.75,0,0,1-.75.75h-2a.75.75,0,0,1,0-1.5h2A.75.75,0,0,1,5.25,14.5ZM12,3.75a.75.75,0,0,1,.75.75v2a.75.75,0,0,1-1.5,0v-2A.75.75,0,0,1,12,3.75Z" fill="#000000" stroke="none" stroke-linecap="round" stroke-linejoin="round" stroke-width="0"></path><path d="M10.750 14.000 A1.250 1.250 0 1 0 13.250 14.000 A1.250 1.250 0 1 0 10.750 14.000 Z" fill="#000000" stroke="none" stroke-linecap="round" stroke-linejoin="round" stroke-width="0"></path></g></svg>