<svg xmlns="http://www.w3.org/2000/svg" version="1.1" xmlns:xlink="http://www.w3.org/1999/xlink" xmlns:svgjs="http://svgjs.com/svgjs" viewBox="0 0 140 140" width="140" height="140"><g transform="matrix(5.833333333333333,0,0,5.833333333333333,0,0)"><path d="M20,3a1,1,0,0,1,1,1v1.75a.25.25,0,0,1-.25.25H20.5a.5.5,0,0,0-.4.8l1.5,2a.5.5,0,0,0,.8,0l1.5-2a.5.5,0,0,0-.4-.8h-.25a.25.25,0,0,1-.25-.25V4a3,3,0,0,0-3-3h-1.75A.25.25,0,0,1,18,.751V.5a.5.5,0,0,0-.8-.4l-2,1.5a.5.5,0,0,0,0,.8l2,1.5a.5.5,0,0,0,.8-.4v-.25a.25.25,0,0,1,.25-.25Z" fill="#000000" stroke="none" stroke-linecap="round" stroke-linejoin="round" stroke-width="0"></path><path d="M0.000 -0.000 L12.000 -0.000 L12.000 18.000 L0.000 18.000 Z" fill="#000000" stroke="none" stroke-linecap="round" stroke-linejoin="round" stroke-width="0"></path><path d="M9,22H8.5a.5.5,0,0,1-.5-.5V21a1,1,0,0,0-2,0v1a2,2,0,0,0,2,2H9a1,1,0,0,0,0-2Z" fill="#000000" stroke="none" stroke-linecap="round" stroke-linejoin="round" stroke-width="0"></path><path d="M23,20a1,1,0,0,0-1,1v.5a.5.5,0,0,1-.5.5H21a1,1,0,0,0,0,2h1a2,2,0,0,0,2-2V21A1,1,0,0,0,23,20Z" fill="#000000" stroke="none" stroke-linecap="round" stroke-linejoin="round" stroke-width="0"></path><path d="M22,12H21a1,1,0,0,0,0,2h.5a.5.5,0,0,1,.5.5V15a1,1,0,0,0,2,0V14A2,2,0,0,0,22,12Z" fill="#000000" stroke="none" stroke-linecap="round" stroke-linejoin="round" stroke-width="0"></path><path d="M16,22H14a1,1,0,0,0,0,2h2a1,1,0,0,0,0-2Z" fill="#000000" stroke="none" stroke-linecap="round" stroke-linejoin="round" stroke-width="0"></path><path d="M16,12H14a1,1,0,0,0,0,2h2a1,1,0,0,0,0-2Z" fill="#000000" stroke="none" stroke-linecap="round" stroke-linejoin="round" stroke-width="0"></path></g></svg>