<svg xmlns="http://www.w3.org/2000/svg" version="1.1" xmlns:xlink="http://www.w3.org/1999/xlink" xmlns:svgjs="http://svgjs.com/svgjs" viewBox="0 0 140 140" width="140" height="140"><g transform="matrix(5.833333333333333,0,0,5.833333333333333,0,0)"><path d="M5.92,16.823a.253.253,0,0,0-.041-.219.248.248,0,0,0-.2-.1H5.5a1,1,0,0,1-1-1v-12a1,1,0,0,1,1-1h14a1,1,0,0,1,1,1V14.182a.249.249,0,0,0,.194.244,6.186,6.186,0,0,1,2.884,1.555A.25.25,0,0,0,24,15.8V2.505a2.5,2.5,0,0,0-2.5-2.5H2.5A2.5,2.5,0,0,0,0,2.505v14a2.5,2.5,0,0,0,2.5,2.5H5.652a.251.251,0,0,0,.242-.312A3.6,3.6,0,0,1,5.92,16.823Z" fill="#000000" stroke="none" stroke-linecap="round" stroke-linejoin="round" stroke-width="0"></path><path d="M23,24a.75.75,0,0,0,.75-.75v-3A4.756,4.756,0,0,0,19,15.5H17a.25.25,0,0,1-.25-.25v-5.5a2.25,2.25,0,0,0-4.5,0v7.06a.25.25,0,0,1-.442.16l-.578-.7a2.25,2.25,0,0,0-3.46,2.877l3.806,4.579a.751.751,0,0,0,.577.271Z" fill="#000000" stroke="none" stroke-linecap="round" stroke-linejoin="round" stroke-width="0"></path></g></svg>