<svg xmlns="http://www.w3.org/2000/svg" version="1.1" xmlns:xlink="http://www.w3.org/1999/xlink" xmlns:svgjs="http://svgjs.com/svgjs" viewBox="0 0 140 140" width="140" height="140"><g transform="matrix(5.833333333333333,0,0,5.833333333333333,0,0)"><path d="M8.751,7.25A.251.251,0,0,1,9,7.5V9.25a.5.5,0,0,0,.5.5h5a.5.5,0,0,0,.5-.5V7.5a.251.251,0,0,1,.25-.25.75.75,0,0,0,0-1.5h-6.5a.75.75,0,0,0,0,1.5Z" fill="#000000" stroke="none" stroke-linecap="round" stroke-linejoin="round" stroke-width="0"></path><path d="M9.55,4.25h4.9a.5.5,0,0,0,.49-.6,3.005,3.005,0,0,0-2.083-2.273A.5.5,0,0,1,12.5.9V.5a.5.5,0,0,0-1,0V.9a.5.5,0,0,1-.357.479A3,3,0,0,0,9.061,3.651a.5.5,0,0,0,.489.6Z" fill="#000000" stroke="none" stroke-linecap="round" stroke-linejoin="round" stroke-width="0"></path><path d="M.783,5.226l4.5,1a1,1,0,1,0,.434-1.952l-4.5-1A1,1,0,0,0,.783,5.226Z" fill="#000000" stroke="none" stroke-linecap="round" stroke-linejoin="round" stroke-width="0"></path><path d="M6.463,8.733a1,1,0,0,0-1.231-.7l-4.5,1.25a1,1,0,0,0,.536,1.927l4.5-1.25A1,1,0,0,0,6.463,8.733Z" fill="#000000" stroke="none" stroke-linecap="round" stroke-linejoin="round" stroke-width="0"></path><path d="M18.768,6.464l4.5-1.25a1,1,0,0,0-.536-1.927l-4.5,1.25a1,1,0,0,0,.536,1.927Z" fill="#000000" stroke="none" stroke-linecap="round" stroke-linejoin="round" stroke-width="0"></path><path d="M23.268,9.287l-4.5-1.25a1,1,0,0,0-.536,1.927l4.5,1.25a1,1,0,0,0,.536-1.927Z" fill="#000000" stroke="none" stroke-linecap="round" stroke-linejoin="round" stroke-width="0"></path><path d="M18.251,22h-.857a.558.558,0,0,1-.544-.5L16.1,12.911a.146.146,0,0,1,.148-.161.75.75,0,0,0,0-1.5h-8.5a.75.75,0,0,0,0,1.5.146.146,0,0,1,.147.161L7.151,21.5a.558.558,0,0,1-.544.5H5.751a1,1,0,0,0,0,2H9.5a.5.5,0,0,0,.5-.5V21.25a2,2,0,0,1,4,0V23.5a.5.5,0,0,0,.5.5h3.75a1,1,0,1,0,0-2Z" fill="#000000" stroke="none" stroke-linecap="round" stroke-linejoin="round" stroke-width="0"></path></g></svg>