<svg xmlns="http://www.w3.org/2000/svg" version="1.1" xmlns:xlink="http://www.w3.org/1999/xlink" xmlns:svgjs="http://svgjs.com/svgjs" viewBox="0 0 140 140" width="140" height="140"><g transform="matrix(5.833333333333333,0,0,5.833333333333333,0,0)"><path d="M20.5,2h-5a.241.241,0,0,1-.208-.121,3.828,3.828,0,0,0-6.589,0A.241.241,0,0,1,8.5,2h-5A1.5,1.5,0,0,0,2,3.5v19A1.5,1.5,0,0,0,3.5,24h17A1.5,1.5,0,0,0,22,22.5V3.5A1.5,1.5,0,0,0,20.5,2ZM19,16.26a2.5,2.5,0,0,1-.6,1.626l-1.919,2.24a2.5,2.5,0,0,1-1.9.873H5.5a.5.5,0,0,1-.5-.5V5.5A.5.5,0,0,1,5.5,5h13a.5.5,0,0,1,.5.5Z" fill="#000000" stroke="none" stroke-linecap="round" stroke-linejoin="round" stroke-width="0"></path><path d="M16,8.249H11.5a.75.75,0,0,0,0,1.5H16a.75.75,0,1,0,0-1.5Z" fill="#000000" stroke="none" stroke-linecap="round" stroke-linejoin="round" stroke-width="0"></path><path d="M16,11.749H11.5a.75.75,0,0,0,0,1.5H16a.75.75,0,1,0,0-1.5Z" fill="#000000" stroke="none" stroke-linecap="round" stroke-linejoin="round" stroke-width="0"></path><path d="M16,15.249H11.5a.75.75,0,1,0,0,1.5H16a.75.75,0,1,0,0-1.5Z" fill="#000000" stroke="none" stroke-linecap="round" stroke-linejoin="round" stroke-width="0"></path><path d="M6.999 8.999 A1.000 1.000 0 1 0 8.999 8.999 A1.000 1.000 0 1 0 6.999 8.999 Z" fill="#000000" stroke="none" stroke-linecap="round" stroke-linejoin="round" stroke-width="0"></path><path d="M6.999 12.499 A1.000 1.000 0 1 0 8.999 12.499 A1.000 1.000 0 1 0 6.999 12.499 Z" fill="#000000" stroke="none" stroke-linecap="round" stroke-linejoin="round" stroke-width="0"></path><path d="M6.999 15.999 A1.000 1.000 0 1 0 8.999 15.999 A1.000 1.000 0 1 0 6.999 15.999 Z" fill="#000000" stroke="none" stroke-linecap="round" stroke-linejoin="round" stroke-width="0"></path></g></svg>