<svg xmlns="http://www.w3.org/2000/svg" version="1.1" xmlns:xlink="http://www.w3.org/1999/xlink" xmlns:svgjs="http://svgjs.com/svgjs" viewBox="0 0 140 140" width="140" height="140"><g transform="matrix(5.833333333333333,0,0,5.833333333333333,0,0)"><path d="M16.726,18.285a1,1,0,0,0-.168,1.993,29.747,29.747,0,0,1,3.776.523.25.25,0,0,1,0,.488A40,40,0,0,1,12,22a40.006,40.006,0,0,1-8.333-.711.25.25,0,0,1,0-.488,29.551,29.551,0,0,1,3.736-.52,1,1,0,0,0-.17-1.992C0,18.9,0,20.4,0,21.044,0,23.712,8.317,24,12,24s12-.288,12-2.956C24,20.4,24,18.9,16.726,18.285Z" fill="#000000" stroke="none" stroke-linecap="round" stroke-linejoin="round" stroke-width="0"></path><path d="M12,21.6a1,1,0,0,0,.842-.461c1.958-3.063,6.512-10.536,6.512-13.786a7.355,7.355,0,1,0-14.71,0c0,3.25,4.554,10.724,6.513,13.786A.993.993,0,0,0,12,21.6ZM8.5,7A3.5,3.5,0,1,1,12,10.5,3.5,3.5,0,0,1,8.5,7Z" fill="#000000" stroke="none" stroke-linecap="round" stroke-linejoin="round" stroke-width="0"></path></g></svg>