<svg xmlns="http://www.w3.org/2000/svg" version="1.1" xmlns:xlink="http://www.w3.org/1999/xlink" xmlns:svgjs="http://svgjs.com/svgjs" viewBox="0 0 140 140" width="140" height="140"><g transform="matrix(5.833333333333333,0,0,5.833333333333333,0,0)"><path d="M12,4.827a6.507,6.507,0,0,0-6.391,6.394A6.232,6.232,0,0,0,9.5,17.1a.258.258,0,0,0,.091.017h1.424a.25.25,0,0,0,.25-.25V13.593a.252.252,0,0,0-.074-.177L9.512,11.739A.738.738,0,0,1,10.555,10.7l1.268,1.268a.249.249,0,0,0,.354,0L13.445,10.7a.738.738,0,0,1,1.043,1.043l-1.677,1.677a.252.252,0,0,0-.074.177v3.274a.25.25,0,0,0,.25.25h1.425a.248.248,0,0,0,.09-.017,6.232,6.232,0,0,0,3.889-5.879A6.507,6.507,0,0,0,12,4.827Z" fill="#000000" stroke="none" stroke-linecap="round" stroke-linejoin="round" stroke-width="0"></path><path d="M11.017.983V2.86a.983.983,0,0,0,1.966,0V.983a.983.983,0,0,0-1.966,0Z" fill="#000000" stroke="none" stroke-linecap="round" stroke-linejoin="round" stroke-width="0"></path><path d="M3.437,9.743H1.184a.983.983,0,1,0,0,1.966H3.437a.983.983,0,0,0,0-1.966Z" fill="#000000" stroke="none" stroke-linecap="round" stroke-linejoin="round" stroke-width="0"></path><path d="M6.3,4.623,4.427,2.746a.983.983,0,0,0-1.39,1.39L4.914,6.013A.983.983,0,0,0,6.3,4.623Z" fill="#000000" stroke="none" stroke-linecap="round" stroke-linejoin="round" stroke-width="0"></path><path d="M22.816,9.743H20.563a.983.983,0,0,0,0,1.966h2.253a.983.983,0,0,0,0-1.966Z" fill="#000000" stroke="none" stroke-linecap="round" stroke-linejoin="round" stroke-width="0"></path><path d="M20.963,2.746a.983.983,0,0,0-1.39,0L17.7,4.623a.983.983,0,1,0,1.39,1.39l1.877-1.877A.983.983,0,0,0,20.963,2.746Z" fill="#000000" stroke="none" stroke-linecap="round" stroke-linejoin="round" stroke-width="0"></path><path d="M14.458,18.337H9.542a.983.983,0,0,0,0,1.966h4.916a.983.983,0,0,0,0-1.966Z" fill="#000000" stroke="none" stroke-linecap="round" stroke-linejoin="round" stroke-width="0"></path><path d="M14.458,21.05H9.542a.983.983,0,1,0,0,1.966h1.25a.249.249,0,0,1,.245.2.983.983,0,0,0,1.926,0,.25.25,0,0,1,.245-.2h1.25a.983.983,0,1,0,0-1.966Z" fill="#000000" stroke="none" stroke-linecap="round" stroke-linejoin="round" stroke-width="0"></path></g></svg>