<svg xmlns="http://www.w3.org/2000/svg" version="1.1" xmlns:xlink="http://www.w3.org/1999/xlink" xmlns:svgjs="http://svgjs.com/svgjs" viewBox="0 0 140 140" width="140" height="140"><g transform="matrix(5.833333333333333,0,0,5.833333333333333,0,0)"><path d="M6.341,4.119A9.477,9.477,0,0,0,3.57,6.355a1,1,0,1,0,1.524,1.3A7.524,7.524,0,0,1,7.283,5.882a1,1,0,1,0-.942-1.763Z" fill="#000000" stroke="none" stroke-linecap="round" stroke-linejoin="round" stroke-width="0"></path><path d="M6.66,2.438a1,1,0,1,0-.7-1.875A12.5,12.5,0,0,0,.4,4.676,1,1,0,1,0,1.981,5.9,10.5,10.5,0,0,1,6.66,2.438Z" fill="#000000" stroke="none" stroke-linecap="round" stroke-linejoin="round" stroke-width="0"></path><path d="M13.341,5.882a7.515,7.515,0,0,1,2.19,1.768,1,1,0,0,0,1.524-1.295,9.468,9.468,0,0,0-2.772-2.236,1,1,0,1,0-.942,1.763Z" fill="#000000" stroke="none" stroke-linecap="round" stroke-linejoin="round" stroke-width="0"></path><path d="M13.965,2.438A10.507,10.507,0,0,1,18.644,5.9,1,1,0,1,0,20.23,4.676,12.5,12.5,0,0,0,14.66.563a1,1,0,0,0-.7,1.875Z" fill="#000000" stroke="none" stroke-linecap="round" stroke-linejoin="round" stroke-width="0"></path><path d="M19.812 11.501 A2.000 2.000 0 1 0 23.812 11.501 A2.000 2.000 0 1 0 19.812 11.501 Z" fill="#000000" stroke="none" stroke-linecap="round" stroke-linejoin="round" stroke-width="0"></path><path d="M22.5,14.159a2.6,2.6,0,0,1-1.371,0,.251.251,0,0,0-.315.242v3.573a3.5,3.5,0,0,1-3.5,3.5l-1.285,0a.249.249,0,0,1-.185-.419A7.492,7.492,0,1,0,10.312,23.5l7-.027a5.506,5.506,0,0,0,5.5-5.5V14.4a.25.25,0,0,0-.314-.242ZM10.312,18a2,2,0,1,1,2-2A2,2,0,0,1,10.312,18Z" fill="#000000" stroke="none" stroke-linecap="round" stroke-linejoin="round" stroke-width="0"></path></g></svg>