<svg xmlns="http://www.w3.org/2000/svg" version="1.1" xmlns:xlink="http://www.w3.org/1999/xlink" xmlns:svgjs="http://svgjs.com/svgjs" viewBox="0 0 140 140" width="140" height="140"><g transform="matrix(5.833333333333333,0,0,5.833333333333333,0,0)"><path d="M12,3.5A8.5,8.5,0,1,0,20.5,12,8.5,8.5,0,0,0,12,3.5ZM9.583,10a1.5,1.5,0,1,1,1.5-1.5A1.5,1.5,0,0,1,9.583,10Zm5.5,5.25a.75.75,0,0,1,0,1.5,3.75,3.75,0,1,1,0-7.5.75.75,0,0,1,0,1.5,2.25,2.25,0,1,0,0,4.5Z" fill="#000000" stroke="none" stroke-linecap="round" stroke-linejoin="round" stroke-width="0"></path><path d="M7.379,3.051a.125.125,0,0,0,.135.014,9.98,9.98,0,0,1,8.972,0,.125.125,0,0,0,.177-.144l-.68-2.55A.5.5,0,0,0,15.5,0h-7a.5.5,0,0,0-.483.371l-.68,2.551A.125.125,0,0,0,7.379,3.051Z" fill="#000000" stroke="none" stroke-linecap="round" stroke-linejoin="round" stroke-width="0"></path><path d="M16.621,20.949a.125.125,0,0,0-.135-.015,9.972,9.972,0,0,1-8.972,0,.125.125,0,0,0-.177.144l.68,2.551A.5.5,0,0,0,8.5,24h7a.5.5,0,0,0,.483-.371l.68-2.551A.125.125,0,0,0,16.621,20.949Z" fill="#000000" stroke="none" stroke-linecap="round" stroke-linejoin="round" stroke-width="0"></path></g></svg>