<svg xmlns="http://www.w3.org/2000/svg" version="1.1" xmlns:xlink="http://www.w3.org/1999/xlink" xmlns:svgjs="http://svgjs.com/svgjs" viewBox="0 0 140 140" width="140" height="140"><g transform="matrix(5.833333333333333,0,0,5.833333333333333,0,0)"><path d="M8,21.443a.251.251,0,0,0,.273-.321,6.017,6.017,0,0,1-.146-2.892.25.25,0,0,0-.212-.3,12.77,12.77,0,0,1-6.128-2.21.25.25,0,0,0-.408.194v1.716C1.375,19.421,4.159,20.929,8,21.443Z" fill="#000000" stroke="none" stroke-linecap="round" stroke-linejoin="round" stroke-width="0"></path><path d="M1.375,13.134c0,1.835,2.936,3.375,6.932,3.847a.249.249,0,0,0,.256-.143A5.893,5.893,0,0,1,11.116,14.1a.25.25,0,0,0-.121-.47h-.12c-3.5,0-7.155-.832-9.092-2.41a.25.25,0,0,0-.408.194Z" fill="#000000" stroke="none" stroke-linecap="round" stroke-linejoin="round" stroke-width="0"></path><path d="M10.876,9.134c-3.5,0-7.156-.832-9.093-2.41a.25.25,0,0,0-.408.193V8.634c0,2.21,4.255,4,9.5,4a19.035,19.035,0,0,0,5.869-.857.244.244,0,0,0,.093-.055l1.914-1.808a1.963,1.963,0,0,1,1.3-.542.252.252,0,0,0,.221-.162,7.52,7.52,0,0,0,.1-2.292.25.25,0,0,0-.408-.194C18.031,8.3,14.381,9.134,10.876,9.134Z" fill="#000000" stroke="none" stroke-linecap="round" stroke-linejoin="round" stroke-width="0"></path><path d="M1.376 4.134 A9.5 4 0 1 0 20.376 4.134 A9.5 4 0 1 0 1.376 4.134 Z" fill="#000000" stroke="none" stroke-linecap="round" stroke-linejoin="round" stroke-width="0"></path><path d="M20.125,10.868a.5.5,0,0,0-.344.136l-4.238,4a.252.252,0,0,1-.245.057,4.5,4.5,0,1,0,3,3.012.254.254,0,0,1,.063-.25l4.116-4.106a.5.5,0,0,0,.147-.353v-2a.5.5,0,0,0-.5-.5Zm-7.217,7.109a1.749,1.749,0,1,1,0,2.475A1.755,1.755,0,0,1,12.908,17.977Z" fill="#000000" stroke="none" stroke-linecap="round" stroke-linejoin="round" stroke-width="0"></path></g></svg>