<svg xmlns="http://www.w3.org/2000/svg" version="1.1" xmlns:xlink="http://www.w3.org/1999/xlink" xmlns:svgjs="http://svgjs.com/svgjs" viewBox="0 0 140 140" width="140" height="140"><g transform="matrix(5.833333333333333,0,0,5.833333333333333,0,0)"><path d="M23.308,19.363l-2.669-1.317a.25.25,0,0,1-.139-.224V9.5a1,1,0,0,0-.59-.912L13.4,5.641a.252.252,0,0,1-.147-.228V2a1.25,1.25,0,0,0-2.5,0V5.416a.25.25,0,0,1-.147.228L4.088,8.589A1,1,0,0,0,3.5,9.5v8.323a.252.252,0,0,1-.138.224l-2.67,1.33a1.25,1.25,0,0,0,1.116,2.238l3-1.5a.11.11,0,0,1,.094,0l6.789,3.067H11.7a.725.725,0,0,0,.6,0h.007l6.785-3.067a.115.115,0,0,1,.1,0l3,1.482a1.251,1.251,0,0,0,1.117-2.238ZM7.432,9.728a.25.25,0,0,1,0-.456L11.9,7.252a.255.255,0,0,1,.206,0l4.5,2.02a.25.25,0,0,1,0,.456l-4.5,2.02a.251.251,0,0,1-.206,0Z" fill="#000000" stroke="none" stroke-linecap="round" stroke-linejoin="round" stroke-width="0"></path></g></svg>