<svg xmlns="http://www.w3.org/2000/svg" version="1.1" xmlns:xlink="http://www.w3.org/1999/xlink" xmlns:svgjs="http://svgjs.com/svgjs" viewBox="0 0 140 140" width="140" height="140"><g transform="matrix(5.833333333333333,0,0,5.833333333333333,0,0)"><path d="M0.000 20.000 L11.000 20.000 L11.000 24.000 L-0.000 24.000 Z" fill="#000000" stroke="none" stroke-linecap="round" stroke-linejoin="round" stroke-width="0"></path><path d="M10,14H1a1,1,0,0,0-1,1v2a1,1,0,0,0,1,1h9a1,1,0,0,0,1-1V15a.99.99,0,0,0-.093-.421.241.241,0,0,0-.069-.089c-.155-.126-.3-.256-.451-.392a.266.266,0,0,0-.1-.056A1.02,1.02,0,0,0,10,14Z" fill="#000000" stroke="none" stroke-linecap="round" stroke-linejoin="round" stroke-width="0"></path><path d="M1,8A1,1,0,0,0,0,9v2a1,1,0,0,0,1,1H8.286a.251.251,0,0,0,.222-.365,8.919,8.919,0,0,1-.978-3.4A.25.25,0,0,0,7.281,8Z" fill="#000000" stroke="none" stroke-linecap="round" stroke-linejoin="round" stroke-width="0"></path><path d="M16.5,0A7.5,7.5,0,1,0,24,7.5,7.5,7.5,0,0,0,16.5,0ZM16,9.25a2.25,2.25,0,0,1-4.5,0V4.75a.75.75,0,0,1,1.5,0v4.5a.75.75,0,0,0,1.5,0V4.75a.75.75,0,0,1,1.5,0Zm5.5-3a8.3,8.3,0,0,1-1.65,4.95.75.75,0,0,1-1.2,0A8.3,8.3,0,0,1,17,6.25V4.75a.75.75,0,0,1,1.5,0v1.5a6.793,6.793,0,0,0,.519,2.591.25.25,0,0,0,.462,0A6.793,6.793,0,0,0,20,6.25V4.75a.75.75,0,0,1,1.5,0Z" fill="#000000" stroke="none" stroke-linecap="round" stroke-linejoin="round" stroke-width="0"></path></g></svg>