<svg xmlns="http://www.w3.org/2000/svg" version="1.1" xmlns:xlink="http://www.w3.org/1999/xlink" xmlns:svgjs="http://svgjs.com/svgjs" viewBox="0 0 140 140" width="140" height="140"><g transform="matrix(5.833333333333333,0,0,5.833333333333333,0,0)"><path d="M0.000 1.751 A1.750 1.750 0 1 0 3.500 1.751 A1.750 1.750 0 1 0 0.000 1.751 Z" fill="#000000" stroke="none" stroke-linecap="round" stroke-linejoin="round" stroke-width="0"></path><path d="M5.000 1.751 A1.750 1.750 0 1 0 8.500 1.751 A1.750 1.750 0 1 0 5.000 1.751 Z" fill="#000000" stroke="none" stroke-linecap="round" stroke-linejoin="round" stroke-width="0"></path><path d="M10.000 1.751 A1.750 1.750 0 1 0 13.500 1.751 A1.750 1.750 0 1 0 10.000 1.751 Z" fill="#000000" stroke="none" stroke-linecap="round" stroke-linejoin="round" stroke-width="0"></path><path d="M0.000 6.751 A1.750 1.750 0 1 0 3.500 6.751 A1.750 1.750 0 1 0 0.000 6.751 Z" fill="#000000" stroke="none" stroke-linecap="round" stroke-linejoin="round" stroke-width="0"></path><path d="M5.000 6.751 A1.750 1.750 0 1 0 8.500 6.751 A1.750 1.750 0 1 0 5.000 6.751 Z" fill="#000000" stroke="none" stroke-linecap="round" stroke-linejoin="round" stroke-width="0"></path><path d="M10.000 6.751 A1.750 1.750 0 1 0 13.500 6.751 A1.750 1.750 0 1 0 10.000 6.751 Z" fill="#000000" stroke="none" stroke-linecap="round" stroke-linejoin="round" stroke-width="0"></path><path d="M0.000 11.751 A1.750 1.750 0 1 0 3.500 11.751 A1.750 1.750 0 1 0 0.000 11.751 Z" fill="#000000" stroke="none" stroke-linecap="round" stroke-linejoin="round" stroke-width="0"></path><path d="M5.000 11.751 A1.750 1.750 0 1 0 8.500 11.751 A1.750 1.750 0 1 0 5.000 11.751 Z" fill="#000000" stroke="none" stroke-linecap="round" stroke-linejoin="round" stroke-width="0"></path><path d="M19.5,17H17V11a2,2,0,0,0-4,0v8.443l-1.462-1.759A2,2,0,0,0,8.462,20.24l2.975,3.579a.5.5,0,0,0,.385.181H23.5a.5.5,0,0,0,.5-.5v-2A4.5,4.5,0,0,0,19.5,17Z" fill="#000000" stroke="none" stroke-linecap="round" stroke-linejoin="round" stroke-width="0"></path></g></svg>