<svg xmlns="http://www.w3.org/2000/svg" version="1.1" xmlns:xlink="http://www.w3.org/1999/xlink" xmlns:svgjs="http://svgjs.com/svgjs" viewBox="0 0 140 140" width="140" height="140"><g transform="matrix(5.833333333333333,0,0,5.833333333333333,0,0)"><path d="M7.420 7.125 A1.625 1.625 0 1 0 10.670 7.125 A1.625 1.625 0 1 0 7.420 7.125 Z" fill="#000000" stroke="none" stroke-linecap="round" stroke-linejoin="round" stroke-width="0"></path><path d="M6.369,11.445A.408.408,0,0,0,6.751,12H11.34a.408.408,0,0,0,.382-.555A2.921,2.921,0,0,0,9.045,9.562,2.921,2.921,0,0,0,6.369,11.445Z" fill="#000000" stroke="none" stroke-linecap="round" stroke-linejoin="round" stroke-width="0"></path><path d="M13.933,11.8l1.5,1.2a.251.251,0,0,0,.407-.194V2.5A2.5,2.5,0,0,0,13.34,0h-9a2.5,2.5,0,0,0-2.5,2.5v19A2.5,2.5,0,0,0,4.34,24h9a2.489,2.489,0,0,0,.771-.122.249.249,0,0,0,.149-.343,4.033,4.033,0,0,1-.42-1.645V20a.251.251,0,0,0-.063-.165l-.661-.747A.251.251,0,0,0,12.928,19H4.34a.5.5,0,0,1-.5-.5V4.5a.5.5,0,0,1,.5-.5h9a.5.5,0,0,1,.5.5v7.1A.249.249,0,0,0,13.933,11.8ZM8.84,20.5a1,1,0,1,1-1,1A1,1,0,0,1,8.84,20.5Z" fill="#000000" stroke="none" stroke-linecap="round" stroke-linejoin="round" stroke-width="0"></path><path d="M18.363,15.347a.751.751,0,0,1-.469,1.336.741.741,0,0,1-.468-.165l-4.1-3.289a1.376,1.376,0,0,0-1.579.261,1.354,1.354,0,0,0-.214.279,1.375,1.375,0,0,0,.214,1.666l3.666,4.142a.249.249,0,0,1,.063.166v2.544a2.63,2.63,0,0,0,.306,1.071A.251.251,0,0,0,16,23.5H21.91a.25.25,0,0,0,.207-.391L20.679,21a.253.253,0,0,1-.044-.141V15.03c0-1.478-1.453-2.921-2.888-4.077a.252.252,0,0,0-.265-.031.25.25,0,0,0-.142.225v3.259a.251.251,0,0,0,.093.2Z" fill="#000000" stroke="none" stroke-linecap="round" stroke-linejoin="round" stroke-width="0"></path></g></svg>