<svg xmlns="http://www.w3.org/2000/svg" version="1.1" xmlns:xlink="http://www.w3.org/1999/xlink" xmlns:svgjs="http://svgjs.com/svgjs" viewBox="0 0 140 140" width="140" height="140"><g transform="matrix(5.833333333333333,0,0,5.833333333333333,0,0)"><path d="M18.5,0H5.5A2.5,2.5,0,0,0,3,2.5v19A2.5,2.5,0,0,0,5.5,24h13A2.5,2.5,0,0,0,21,21.5V2.5A2.5,2.5,0,0,0,18.5,0ZM11.99,9a6,6,0,1,1-6,6A6.006,6.006,0,0,1,11.99,9ZM6,4.5a1,1,0,0,1,1-1H9.5a1,1,0,0,1,0,2H7A1,1,0,0,1,6,4.5Zm10.5,2a2,2,0,1,1,2-2A2,2,0,0,1,16.5,6.5Z" fill="#000000" stroke="none" stroke-linecap="round" stroke-linejoin="round" stroke-width="0"></path><path d="M9.490 14.998 A2.500 2.500 0 1 0 14.490 14.998 A2.500 2.500 0 1 0 9.490 14.998 Z" fill="#000000" stroke="none" stroke-linecap="round" stroke-linejoin="round" stroke-width="0"></path></g></svg>