<svg xmlns="http://www.w3.org/2000/svg" version="1.1" xmlns:xlink="http://www.w3.org/1999/xlink" xmlns:svgjs="http://svgjs.com/svgjs" viewBox="0 0 140 140" width="140" height="140"><g transform="matrix(5.833333333333333,0,0,5.833333333333333,0,0)"><path d="M8.616,1.741A1.455,1.455,0,0,1,10.07.287h3.392a1.455,1.455,0,0,1,1.453,1.454V9.969a.25.25,0,0,0,.25.25h2.9a1.138,1.138,0,0,1,.827,2l-6.1,6.1a1.489,1.489,0,0,1-2.056,0l-6.1-6.1a1.137,1.137,0,0,1,.827-2h2.9a.249.249,0,0,0,.25-.25Z" fill="#000000" stroke="none" stroke-linecap="round" stroke-linejoin="round" stroke-width="0"></path><path d="M0,19.677a4.039,4.039,0,0,0,4.035,4.035h15.93A4.039,4.039,0,0,0,24,19.677V17.8a1.225,1.225,0,0,0-2.449,0v1.874a1.588,1.588,0,0,1-1.586,1.586H4.035a1.588,1.588,0,0,1-1.586-1.586V17.8A1.225,1.225,0,0,0,0,17.8Z" fill="#000000" stroke="none" stroke-linecap="round" stroke-linejoin="round" stroke-width="0"></path></g></svg>