<svg xmlns="http://www.w3.org/2000/svg" version="1.1" xmlns:xlink="http://www.w3.org/1999/xlink" xmlns:svgjs="http://svgjs.com/svgjs" viewBox="0 0 140 140" width="140" height="140"><g transform="matrix(5.833333333333333,0,0,5.833333333333333,0,0)"><path d="M11.993,17.883h-.022A5.014,5.014,0,0,0,7,22.927a.5.5,0,0,0,.5.5h9a.5.5,0,0,0,.5-.5,5.054,5.054,0,0,0-1.48-3.558A4.943,4.943,0,0,0,11.993,17.883Z" fill="#000000" stroke="none" stroke-linecap="round" stroke-linejoin="round" stroke-width="0"></path><path d="M12.017,17.383a3.5,3.5,0,0,0-.017-7h-.016a3.5,3.5,0,0,0,.016,7Z" fill="#000000" stroke="none" stroke-linecap="round" stroke-linejoin="round" stroke-width="0"></path><path d="M17.631,6.728A8,8,0,0,0,5.076,16.419a1,1,0,0,0,1.73-1,6,6,0,1,1,10.389,0,1,1,0,0,0,1.731,1A8,8,0,0,0,17.631,6.728Z" fill="#000000" stroke="none" stroke-linecap="round" stroke-linejoin="round" stroke-width="0"></path><path d="M20.447,4.045A12,12,0,1,0,3.553,21.094,1,1,0,0,0,4.96,19.673,10,10,0,1,1,19.1,19.608a1,1,0,1,0,1.421,1.408A12.014,12.014,0,0,0,20.447,4.045Z" fill="#000000" stroke="none" stroke-linecap="round" stroke-linejoin="round" stroke-width="0"></path></g></svg>