<svg xmlns="http://www.w3.org/2000/svg" version="1.1" xmlns:xlink="http://www.w3.org/1999/xlink" xmlns:svgjs="http://svgjs.com/svgjs" viewBox="0 0 140 140" width="140" height="140"><g transform="matrix(5.833333333333333,0,0,5.833333333333333,0,0)"><path d="M6.5,4.25A.751.751,0,0,0,5.75,5v.5A.25.25,0,0,0,6,5.75H7a.25.25,0,0,0,.25-.25V5A.751.751,0,0,0,6.5,4.25Z" fill="#000000" stroke="none" stroke-linecap="round" stroke-linejoin="round" stroke-width="0"></path><path d="M17.223,17.25a.25.25,0,0,0-.234.339,3.975,3.975,0,0,0,.3.614.249.249,0,0,0,.43,0,4.058,4.058,0,0,0,.3-.614.25.25,0,0,0-.234-.339Z" fill="#000000" stroke="none" stroke-linecap="round" stroke-linejoin="round" stroke-width="0"></path><path d="M22.5,11H14.75a.25.25,0,0,0-.25.25v2.5a.75.75,0,0,1-.75.75h-3a.25.25,0,0,0-.25.25V22.5A1.5,1.5,0,0,0,12,24H22.5A1.5,1.5,0,0,0,24,22.5v-10A1.5,1.5,0,0,0,22.5,11Zm-8,4.75h2a.25.25,0,0,0,.25-.25V15a.75.75,0,0,1,1.5,0v.5a.25.25,0,0,0,.25.25h2a.75.75,0,0,1,0,1.5h-.627a.249.249,0,0,0-.243.192,5.51,5.51,0,0,1-.876,1.905.249.249,0,0,0-.041.2.246.246,0,0,0,.118.163,5.881,5.881,0,0,0,1.372.57.75.75,0,1,1-.406,1.444,7.057,7.057,0,0,1-2.153-1,.248.248,0,0,0-.287,0,7.057,7.057,0,0,1-2.153,1,.75.75,0,1,1-.406-1.444,5.881,5.881,0,0,0,1.372-.57.25.25,0,0,0,.119-.163.253.253,0,0,0-.042-.2,5.51,5.51,0,0,1-.876-1.905.249.249,0,0,0-.243-.192H14.5a.75.75,0,0,1,0-1.5Z" fill="#000000" stroke="none" stroke-linecap="round" stroke-linejoin="round" stroke-width="0"></path><path d="M12.75,13a.25.25,0,0,0,.25-.25V1.5A1.5,1.5,0,0,0,11.5,0H1.5A1.5,1.5,0,0,0,0,1.5v10A1.5,1.5,0,0,0,1.5,13ZM6,7.25a.25.25,0,0,0-.25.25v2a.75.75,0,0,1-1.5,0V5a2.25,2.25,0,0,1,4.5,0V9.5a.75.75,0,0,1-1.5,0v-2A.25.25,0,0,0,7,7.25Z" fill="#000000" stroke="none" stroke-linecap="round" stroke-linejoin="round" stroke-width="0"></path></g></svg>