<svg xmlns="http://www.w3.org/2000/svg" version="1.1" xmlns:xlink="http://www.w3.org/1999/xlink" xmlns:svgjs="http://svgjs.com/svgjs" viewBox="0 0 140 140" width="140" height="140"><g transform="matrix(5.833333333333333,0,0,5.833333333333333,0,0)"><path d="M4,9v6a1,1,0,0,0,2,0V9A1,1,0,0,0,4,9Z" fill="#000000" stroke="none" stroke-linecap="round" stroke-linejoin="round" stroke-width="0"></path><path d="M8.5,6.5a1,1,0,0,0-1,1v9a1,1,0,0,0,2,0v-9A1,1,0,0,0,8.5,6.5Z" fill="#000000" stroke="none" stroke-linecap="round" stroke-linejoin="round" stroke-width="0"></path><path d="M20,15V9a1,1,0,0,0-2,0v6a1,1,0,0,0,2,0Z" fill="#000000" stroke="none" stroke-linecap="round" stroke-linejoin="round" stroke-width="0"></path><path d="M16.5,7.5a1,1,0,0,0-2,0v9a1,1,0,0,0,2,0Z" fill="#000000" stroke="none" stroke-linecap="round" stroke-linejoin="round" stroke-width="0"></path><path d="M12,3.5a1,1,0,0,0-1,1v15a1,1,0,0,0,2,0V4.5A1,1,0,0,0,12,3.5Z" fill="#000000" stroke="none" stroke-linecap="round" stroke-linejoin="round" stroke-width="0"></path><path d="M6.5,22H2.25A.25.25,0,0,1,2,21.75V17.5a1,1,0,0,0-2,0V22a2,2,0,0,0,2,2H6.5a1,1,0,0,0,0-2Z" fill="#000000" stroke="none" stroke-linecap="round" stroke-linejoin="round" stroke-width="0"></path><path d="M1,7.5a1,1,0,0,0,1-1V2.25A.25.25,0,0,1,2.25,2H6.5a1,1,0,0,0,0-2H2A2,2,0,0,0,0,2V6.5A1,1,0,0,0,1,7.5Z" fill="#000000" stroke="none" stroke-linecap="round" stroke-linejoin="round" stroke-width="0"></path><path d="M23,16.5a1,1,0,0,0-1,1v4.25a.25.25,0,0,1-.25.25H17.5a1,1,0,0,0,0,2H22a2,2,0,0,0,2-2V17.5A1,1,0,0,0,23,16.5Z" fill="#000000" stroke="none" stroke-linecap="round" stroke-linejoin="round" stroke-width="0"></path><path d="M22,0H17.5a1,1,0,0,0,0,2h4.25a.25.25,0,0,1,.25.25V6.5a1,1,0,0,0,2,0V2A2,2,0,0,0,22,0Z" fill="#000000" stroke="none" stroke-linecap="round" stroke-linejoin="round" stroke-width="0"></path></g></svg>