<svg xmlns="http://www.w3.org/2000/svg" version="1.1" xmlns:xlink="http://www.w3.org/1999/xlink" xmlns:svgjs="http://svgjs.com/svgjs" viewBox="0 0 140 140" width="140" height="140"><g transform="matrix(5.833333333333333,0,0,5.833333333333333,0,0)"><path d="M18.01,7.484A8.5,8.5,0,0,0,5.99,19.5,1,1,0,1,0,7.4,18.09a6.5,6.5,0,1,1,9.192,0A1,1,0,1,0,18.01,19.5a8.5,8.5,0,0,0,0-12.02Z" fill="#000000" stroke="none" stroke-linecap="round" stroke-linejoin="round" stroke-width="0"></path><path d="M20.457,5A11.96,11.96,0,0,0,3.543,21.917,1,1,0,1,0,4.957,20.5,9.96,9.96,0,0,1,19.043,6.417a9.961,9.961,0,0,1,0,14.086,1,1,0,1,0,1.414,1.414A11.96,11.96,0,0,0,20.457,5Z" fill="#000000" stroke="none" stroke-linecap="round" stroke-linejoin="round" stroke-width="0"></path><path d="M14,18.5H10a.5.5,0,0,0-.5.5,2.493,2.493,0,0,0,1.592,2.317.25.25,0,0,1,.158.233v.2a.75.75,0,0,0,1.5,0v-.2a.251.251,0,0,1,.159-.233A2.492,2.492,0,0,0,14.5,19,.5.5,0,0,0,14,18.5Z" fill="#000000" stroke="none" stroke-linecap="round" stroke-linejoin="round" stroke-width="0"></path><path d="M12,8.4a5.005,5.005,0,0,0-5,5,4.869,4.869,0,0,0,1.354,3.49.653.653,0,0,0,.475.2H11a.25.25,0,0,0,.25-.25V14.535a.253.253,0,0,0-.111-.208l-1.8-1.2a.75.75,0,0,1,.832-1.248l1.7,1.131a.251.251,0,0,0,.278,0l1.7-1.131a.75.75,0,1,1,.832,1.248l-1.8,1.2a.253.253,0,0,0-.111.208v2.313a.25.25,0,0,0,.25.25h2.171a.653.653,0,0,0,.475-.2A4.869,4.869,0,0,0,17,13.4,5,5,0,0,0,12,8.4Z" fill="#000000" stroke="none" stroke-linecap="round" stroke-linejoin="round" stroke-width="0"></path></g></svg>