<svg xmlns="http://www.w3.org/2000/svg" version="1.1" xmlns:xlink="http://www.w3.org/1999/xlink" xmlns:svgjs="http://svgjs.com/svgjs" viewBox="0 0 140 140" width="140" height="140"><g transform="matrix(5.833333333333333,0,0,5.833333333333333,0,0)"><path d="M20,2a2,2,0,0,0-2-2H2A2,2,0,0,0,0,2V3a.25.25,0,0,0,.25.25h19.5A.25.25,0,0,0,20,3Z" fill="#000000" stroke="none" stroke-linecap="round" stroke-linejoin="round" stroke-width="0"></path><path d="M14.5,13.509A3,3,0,0,1,17.474,10.5H19.75a.25.25,0,0,0,.25-.25V5a.25.25,0,0,0-.25-.25H.25A.25.25,0,0,0,0,5v8a2,2,0,0,0,2,2H14.25a.25.25,0,0,0,.25-.25ZM6,12.25H3a.75.75,0,0,1,0-1.5H6a.75.75,0,0,1,0,1.5Zm3.5-3.5H3a.75.75,0,0,1,0-1.5H9.5a.75.75,0,0,1,0,1.5Z" fill="#000000" stroke="none" stroke-linecap="round" stroke-linejoin="round" stroke-width="0"></path><path d="M22.526,12H17.474A1.493,1.493,0,0,0,16,13.509h0v8.982h0A1.493,1.493,0,0,0,17.474,24h5.052A1.493,1.493,0,0,0,24,22.491h0V13.509h0A1.493,1.493,0,0,0,22.526,12ZM22,20.5a.5.5,0,0,1-.5.5h-3a.5.5,0,0,1-.5-.5v-6a.5.5,0,0,1,.5-.5h3a.5.5,0,0,1,.5.5Z" fill="#000000" stroke="none" stroke-linecap="round" stroke-linejoin="round" stroke-width="0"></path></g></svg>