<svg xmlns="http://www.w3.org/2000/svg" version="1.1" xmlns:xlink="http://www.w3.org/1999/xlink" xmlns:svgjs="http://svgjs.com/svgjs" viewBox="0 0 140 140" width="140" height="140"><g transform="matrix(5.833333333333333,0,0,5.833333333333333,0,0)"><path d="M14.5,4.5A.5.5,0,0,0,14,5V8.25a.25.25,0,0,0,.25.25h.5A.25.25,0,0,0,15,8.25V5A.5.5,0,0,0,14.5,4.5Z" fill="#000000" stroke="none" stroke-linecap="round" stroke-linejoin="round" stroke-width="0"></path><path d="M23.772,6.882,15.416.15a.652.652,0,0,0-.832,0L6.228,6.882a.628.628,0,0,0-.189.7.643.643,0,0,0,.6.416H8.5a.5.5,0,0,1,.5.5v5.866A.639.639,0,0,0,9.643,15H20.357A.638.638,0,0,0,21,14.366V8.5a.5.5,0,0,1,.5-.5h1.857a.643.643,0,0,0,.6-.416A.628.628,0,0,0,23.772,6.882ZM14.5,13.5a2,2,0,0,1-1.555-3.257A.245.245,0,0,0,13,10.087V5a1.5,1.5,0,0,1,3,0v5.087a.251.251,0,0,0,.055.156A2,2,0,0,1,14.5,13.5Zm4-4.5h-1a.5.5,0,0,1,0-1h1a.5.5,0,0,1,0,1Zm0-2h-1a.5.5,0,0,1,0-1h1a.5.5,0,0,1,0,1Z" fill="#000000" stroke="none" stroke-linecap="round" stroke-linejoin="round" stroke-width="0"></path><path d="M2.414,14.057a1.281,1.281,0,0,1,1.672,0,.75.75,0,1,0,1-1.114,2.819,2.819,0,0,0-3.68,0,.75.75,0,1,0,1,1.114Z" fill="#000000" stroke="none" stroke-linecap="round" stroke-linejoin="round" stroke-width="0"></path><path d="M6.219,10.793a4.871,4.871,0,0,0-5.938,0,.75.75,0,1,0,.938,1.17,3.3,3.3,0,0,1,4.062,0,.75.75,0,1,0,.938-1.17Z" fill="#000000" stroke="none" stroke-linecap="round" stroke-linejoin="round" stroke-width="0"></path><path d="M4.75,15.25h-3A1.752,1.752,0,0,0,0,17v5.25A1.752,1.752,0,0,0,1.75,24h3A1.752,1.752,0,0,0,6.5,22.25V17A1.752,1.752,0,0,0,4.75,15.25Zm.25,7a.25.25,0,0,1-.25.25h-3a.25.25,0,0,1-.25-.25V17a.25.25,0,0,1,.25-.25h3A.25.25,0,0,1,5,17Z" fill="#000000" stroke="none" stroke-linecap="round" stroke-linejoin="round" stroke-width="0"></path></g></svg>