<svg xmlns="http://www.w3.org/2000/svg" version="1.1" xmlns:xlink="http://www.w3.org/1999/xlink" xmlns:svgjs="http://svgjs.com/svgjs" viewBox="0 0 140 140" width="140" height="140"><g transform="matrix(5.833333333333333,0,0,5.833333333333333,0,0)"><path d="M3.84,22l-1.584.037A.251.251,0,0,1,2,21.787V20.16a1,1,0,0,0-2,0v1.883A1.957,1.957,0,0,0,1.957,24H3.84a1,1,0,0,0,0-2Z" fill="#000000" stroke="none" stroke-linecap="round" stroke-linejoin="round" stroke-width="0"></path><path d="M1,4.84a1,1,0,0,0,1-1L1.962,2.256A.251.251,0,0,1,2.212,2H3.84a1,1,0,0,0,0-2H1.956A1.956,1.956,0,0,0,0,1.956V3.84A1,1,0,0,0,1,4.84Z" fill="#000000" stroke="none" stroke-linecap="round" stroke-linejoin="round" stroke-width="0"></path><path d="M22.043,0H20.16a1,1,0,0,0,0,2l1.584-.037a.251.251,0,0,1,.256.25V3.84a1,1,0,0,0,2,0V1.957A1.957,1.957,0,0,0,22.043,0Z" fill="#000000" stroke="none" stroke-linecap="round" stroke-linejoin="round" stroke-width="0"></path><path d="M23,19.16a1,1,0,0,0-1,1l.038,1.584a.251.251,0,0,1-.25.256H20.16a1,1,0,1,0,0,2h1.884A1.956,1.956,0,0,0,24,22.044V20.16A1,1,0,0,0,23,19.16Z" fill="#000000" stroke="none" stroke-linecap="round" stroke-linejoin="round" stroke-width="0"></path><path d="M5.000 4.500 L8.500 4.500 L8.500 8.000 L5.000 8.000 Z" fill="#000000" stroke="none" stroke-linecap="round" stroke-linejoin="round" stroke-width="0"></path><path d="M15.500 4.500 L19.000 4.500 L19.000 8.000 L15.500 8.000 Z" fill="#000000" stroke="none" stroke-linecap="round" stroke-linejoin="round" stroke-width="0"></path><path d="M15.500 16.000 L19.000 16.000 L19.000 19.500 L15.500 19.500 Z" fill="#000000" stroke="none" stroke-linecap="round" stroke-linejoin="round" stroke-width="0"></path><path d="M5.000 16.000 L8.500 16.000 L8.500 19.500 L5.000 19.500 Z" fill="#000000" stroke="none" stroke-linecap="round" stroke-linejoin="round" stroke-width="0"></path><path d="M10.5,8.261a.75.75,0,0,0,.75-.75V6.25A.25.25,0,0,1,11.5,6h1.932a.75.75,0,1,0,0-1.5H10.5a.75.75,0,0,0-.75.75V7.511A.75.75,0,0,0,10.5,8.261Z" fill="#000000" stroke="none" stroke-linecap="round" stroke-linejoin="round" stroke-width="0"></path><path d="M13.5,7.131a.75.75,0,0,0-.75.75v3.348a.75.75,0,0,0,1.5,0V7.881A.75.75,0,0,0,13.5,7.131Z" fill="#000000" stroke="none" stroke-linecap="round" stroke-linejoin="round" stroke-width="0"></path><path d="M10.5,14.5a.75.75,0,0,0,.75-.75V11.337a.75.75,0,0,0-1.5,0V12.75A.25.25,0,0,1,9.5,13h-4a.75.75,0,0,0,0,1.5Z" fill="#000000" stroke="none" stroke-linecap="round" stroke-linejoin="round" stroke-width="0"></path><path d="M13.432,18H11.5a.25.25,0,0,1-.25-.25V16.337a.75.75,0,0,0-1.5,0V18.75a.75.75,0,0,0,.75.75h2.932a.75.75,0,1,0,0-1.5Z" fill="#000000" stroke="none" stroke-linecap="round" stroke-linejoin="round" stroke-width="0"></path><path d="M5.5,11h2a.75.75,0,0,0,0-1.5h-2a.75.75,0,0,0,0,1.5Z" fill="#000000" stroke="none" stroke-linecap="round" stroke-linejoin="round" stroke-width="0"></path><path d="M16,11h2.5a.75.75,0,0,0,0-1.5H16A.75.75,0,0,0,16,11Z" fill="#000000" stroke="none" stroke-linecap="round" stroke-linejoin="round" stroke-width="0"></path><path d="M18.5,13H13a.75.75,0,0,0,0,1.5h5.5a.75.75,0,0,0,0-1.5Z" fill="#000000" stroke="none" stroke-linecap="round" stroke-linejoin="round" stroke-width="0"></path></g></svg>