<svg xmlns="http://www.w3.org/2000/svg" version="1.1" xmlns:xlink="http://www.w3.org/1999/xlink" xmlns:svgjs="http://svgjs.com/svgjs" viewBox="0 0 140 140" width="140" height="140"><g transform="matrix(5.833333333333333,0,0,5.833333333333333,0,0)"><path d="M12,0A12,12,0,1,0,24,12,12.013,12.013,0,0,0,12,0Zm5.5,14.723a.5.5,0,0,1-.771.419l-1.843-1.194a.25.25,0,0,0-.386.21V15.5a.5.5,0,0,1-.5.5H7a.5.5,0,0,1-.5-.5v-7A.5.5,0,0,1,7,8h7a.5.5,0,0,1,.5.5V9.842a.251.251,0,0,0,.386.21l1.843-1.194a.5.5,0,0,1,.51-.02.5.5,0,0,1,.261.439Z" fill="#000000" stroke="none" stroke-linecap="round" stroke-linejoin="round" stroke-width="0"></path></g></svg>