<svg xmlns="http://www.w3.org/2000/svg" version="1.1" xmlns:xlink="http://www.w3.org/1999/xlink" xmlns:svgjs="http://svgjs.com/svgjs" viewBox="0 0 140 140" width="140" height="140"><g transform="matrix(5.833333333333333,0,0,5.833333333333333,0,0)"><path d="M12.5,6.986h-1a5.574,5.574,0,0,0-5.5,5.5v6a5.573,5.573,0,0,0,5.5,5.5h1a5.573,5.573,0,0,0,5.5-5.5v-6A5.574,5.574,0,0,0,12.5,6.986Zm.5,6.5a1,1,0,0,1-2,0v-2a1,1,0,0,1,2,0Z" fill="#000000" stroke="none" stroke-linecap="round" stroke-linejoin="round" stroke-width="0"></path><path d="M8.067,3.213a7.025,7.025,0,0,1,7.866,0,1,1,0,0,0,1.134-1.647,9.052,9.052,0,0,0-10.134,0A1,1,0,0,0,8.067,3.213Z" fill="#000000" stroke="none" stroke-linecap="round" stroke-linejoin="round" stroke-width="0"></path><path d="M8.317,4.364A1,1,0,0,0,9.45,6.013a4.564,4.564,0,0,1,5.1,0,1,1,0,0,0,1.131-1.649A6.59,6.59,0,0,0,8.317,4.364Z" fill="#000000" stroke="none" stroke-linecap="round" stroke-linejoin="round" stroke-width="0"></path></g></svg>