<svg xmlns="http://www.w3.org/2000/svg" version="1.1" xmlns:xlink="http://www.w3.org/1999/xlink" xmlns:svgjs="http://svgjs.com/svgjs" viewBox="0 0 140 140" width="140" height="140"><g transform="matrix(5.833333333333333,0,0,5.833333333333333,0,0)"><path d="M11.287,4.263A6.286,6.286,0,0,0,5,10.549a5.676,5.676,0,0,0,2.432,5.035.33.33,0,0,1,.147.271v3.56a.322.322,0,0,0,.322.322h6.448a.323.323,0,0,0,.323-.322V17.279a.322.322,0,0,1,.322-.322h.967a1.612,1.612,0,0,0,1.612-1.612V14.066a.323.323,0,0,1,.322-.323c.12,0,.243,0,.355-.006a.806.806,0,0,0,.622-.336.788.788,0,0,0,.122-.478l0-.089a5.048,5.048,0,0,0-.917-2.417c-.107-.187-.235-.413-.33-.6a1.293,1.293,0,0,1-.139-.537C17.61,6.51,15.451,4.263,11.287,4.263Z" fill="#000000" stroke="none" stroke-linecap="round" stroke-linejoin="round" stroke-width="0"></path><path d="M6.5,22H2.248A.25.25,0,0,1,2,21.75V17.5a1,1,0,0,0-2,0V22a2,2,0,0,0,2,2H6.5a1,1,0,1,0,0-2Z" fill="#000000" stroke="none" stroke-linecap="round" stroke-linejoin="round" stroke-width="0"></path><path d="M1,7.5a1,1,0,0,0,1-1V2.25A.25.25,0,0,1,2.248,2H6.5a1,1,0,0,0,0-2H2A2,2,0,0,0,0,2V6.5A1,1,0,0,0,1,7.5Z" fill="#000000" stroke="none" stroke-linecap="round" stroke-linejoin="round" stroke-width="0"></path><path d="M23,16.5a1,1,0,0,0-1,1v4.25a.25.25,0,0,1-.25.25H17.5a1,1,0,0,0,0,2H22a2,2,0,0,0,2-2V17.5A1,1,0,0,0,23,16.5Z" fill="#000000" stroke="none" stroke-linecap="round" stroke-linejoin="round" stroke-width="0"></path><path d="M22,0H17.5a1,1,0,0,0,0,2h4.25a.25.25,0,0,1,.25.25V6.5a1,1,0,0,0,2,0V2A2,2,0,0,0,22,0Z" fill="#000000" stroke="none" stroke-linecap="round" stroke-linejoin="round" stroke-width="0"></path></g></svg>