<svg xmlns="http://www.w3.org/2000/svg" version="1.1" xmlns:xlink="http://www.w3.org/1999/xlink" xmlns:svgjs="http://svgjs.com/svgjs" viewBox="0 0 140 140" width="140" height="140"><g transform="matrix(5.833333333333333,0,0,5.833333333333333,0,0)"><path d="M12,3.5A8.5,8.5,0,1,0,20.5,12,8.5,8.5,0,0,0,12,3.5Zm-1.917,6a2,2,0,1,1,4,0v2a2,2,0,0,1-4,0Zm2.706,5.938a.25.25,0,0,0-.206.246V17a.5.5,0,0,1-1,0V15.683a.249.249,0,0,0-.205-.246A4.007,4.007,0,0,1,8.083,11.5a.5.5,0,0,1,1,0,3,3,0,0,0,6,0,.5.5,0,1,1,1,0A4.006,4.006,0,0,1,12.789,15.437Z" fill="#000000" stroke="none" stroke-linecap="round" stroke-linejoin="round" stroke-width="0"></path><path d="M7.379,3.05a.125.125,0,0,0,.135.015,9.972,9.972,0,0,1,8.972,0,.125.125,0,0,0,.177-.144L15.983.37A.5.5,0,0,0,15.5,0h-7A.5.5,0,0,0,8.017.37l-.68,2.551A.125.125,0,0,0,7.379,3.05Z" fill="#000000" stroke="none" stroke-linecap="round" stroke-linejoin="round" stroke-width="0"></path><path d="M16.621,20.948a.127.127,0,0,0-.135-.014,9.98,9.98,0,0,1-8.972,0,.124.124,0,0,0-.177.143l.68,2.551A.5.5,0,0,0,8.5,24h7a.5.5,0,0,0,.483-.371l.68-2.55A.126.126,0,0,0,16.621,20.948Z" fill="#000000" stroke="none" stroke-linecap="round" stroke-linejoin="round" stroke-width="0"></path></g></svg>