<svg xmlns="http://www.w3.org/2000/svg" version="1.1" xmlns:xlink="http://www.w3.org/1999/xlink" xmlns:svgjs="http://svgjs.com/svgjs" viewBox="0 0 140 140" width="140" height="140"><g transform="matrix(5.833333333333333,0,0,5.833333333333333,0,0)"><path d="M11.5,5.251a7.5,7.5,0,1,0,7.5,7.5A7.5,7.5,0,0,0,11.5,5.251Zm1.25,5.25A1.5,1.5,0,1,1,14.25,9,1.5,1.5,0,0,1,12.75,10.5Z" fill="#000000" stroke="none" stroke-linecap="round" stroke-linejoin="round" stroke-width="0"></path><path d="M23,13.751a1,1,0,0,0,1-1,.984.984,0,0,0-.859-.986.25.25,0,0,1-.211-.221A11.5,11.5,0,1,0,3.248,20.737a.249.249,0,0,1,.02.323l-.068.091a1,1,0,1,0,1.6,1.2l1.5-2a1,1,0,0,0-1.6-1.2.129.129,0,0,1-.2.01,9.5,9.5,0,1,1,16.419-7.64.251.251,0,0,1-.183.274A1,1,0,0,0,21,13.751Z" fill="#000000" stroke="none" stroke-linecap="round" stroke-linejoin="round" stroke-width="0"></path></g></svg>