<svg xmlns="http://www.w3.org/2000/svg" version="1.1" xmlns:xlink="http://www.w3.org/1999/xlink" xmlns:svgjs="http://svgjs.com/svgjs" viewBox="0 0 140 140" width="140" height="140"><g transform="matrix(5.833333333333333,0,0,5.833333333333333,0,0)"><path d="M23,4h-.023a.749.749,0,0,1-.714-.521,4.979,4.979,0,0,0-9-1.092.5.5,0,0,1-.57.217,2.368,2.368,0,0,0-1.388,0,.5.5,0,0,1-.57-.217A4.979,4.979,0,0,0,1.743,3.461.78.78,0,0,1,1,4,1,1,0,0,0,1,6a.781.781,0,0,1,.743.541A5,5,0,0,0,11.5,5a.5.5,0,0,1,1,0,5,5,0,0,0,9.757,1.541A.781.781,0,0,1,23,6a1,1,0,0,0,0-2ZM6.5,8a3,3,0,1,1,3-3A3,3,0,0,1,6.5,8Zm11,0a3,3,0,1,1,3-3A3,3,0,0,1,17.5,8Z" fill="#000000" stroke="none" stroke-linecap="round" stroke-linejoin="round" stroke-width="0"></path><path d="M20.028,11.51a1.751,1.751,0,0,0-1.568-.249l-6.151,2a1,1,0,0,1-.618,0l-6.15-2A1.751,1.751,0,0,0,3.25,12.926v7a1.745,1.745,0,0,0,1.21,1.664l7.309,2.376a.759.759,0,0,0,.462,0l7.309-2.376a1.745,1.745,0,0,0,1.21-1.664v-7A1.754,1.754,0,0,0,20.028,11.51ZM18,15.522a.5.5,0,0,1-.363.481l-2.5.714a.5.5,0,0,1-.637-.481v-.71a.5.5,0,0,1,.363-.48l2.5-.715a.5.5,0,0,1,.637.481Z" fill="#000000" stroke="none" stroke-linecap="round" stroke-linejoin="round" stroke-width="0"></path></g></svg>