<svg xmlns="http://www.w3.org/2000/svg" version="1.1" xmlns:xlink="http://www.w3.org/1999/xlink" xmlns:svgjs="http://svgjs.com/svgjs" viewBox="0 0 140 140" width="140" height="140"><g transform="matrix(5.833333333333333,0,0,5.833333333333333,0,0)"><path d="M7.000 9.250 A0.750 0.750 0 1 0 8.500 9.250 A0.750 0.750 0 1 0 7.000 9.250 Z" fill="#000000" stroke="none" stroke-linecap="round" stroke-linejoin="round" stroke-width="0"></path><path d="M12,0C6.21,0,1.5,4.262,1.5,9.5c0,5.747,7.3,12.285,9.54,14.152a1.5,1.5,0,0,0,1.921,0C15.2,21.784,22.5,15.246,22.5,9.5,22.5,4.262,17.79,0,12,0ZM8.5,4a1,1,0,0,1,1-1H13a.5.5,0,0,1,.354.146l2,2A.5.5,0,0,1,15.5,5.5V6a.5.5,0,0,1-.5.5H9A.5.5,0,0,1,8.5,6ZM15,18a.5.5,0,0,1-.5.5h-5A.5.5,0,0,1,9,18V13a.5.5,0,0,1,.5-.5h5a.5.5,0,0,1,.5.5Zm3-5.5a1,1,0,0,1-1,1,.5.5,0,0,1-.5-.5V12a1,1,0,0,0-1-1h-7a1,1,0,0,0-1,1v1a.5.5,0,0,1-.5.5,1,1,0,0,1-1-1v-4a1,1,0,0,1,1-1H17a1,1,0,0,1,1,1Z" fill="#000000" stroke="none" stroke-linecap="round" stroke-linejoin="round" stroke-width="0"></path><path d="M13,14H11a.5.5,0,0,0,0,1h2a.5.5,0,0,0,0-1Z" fill="#000000" stroke="none" stroke-linecap="round" stroke-linejoin="round" stroke-width="0"></path><path d="M13,16H11a.5.5,0,0,0,0,1h2a.5.5,0,0,0,0-1Z" fill="#000000" stroke="none" stroke-linecap="round" stroke-linejoin="round" stroke-width="0"></path></g></svg>