<svg xmlns="http://www.w3.org/2000/svg" version="1.1" xmlns:xlink="http://www.w3.org/1999/xlink" xmlns:svgjs="http://svgjs.com/svgjs" viewBox="0 0 140 140" width="140" height="140"><g transform="matrix(5.833333333333333,0,0,5.833333333333333,0,0)"><path d="M19.661,16.037a.75.75,0,1,0,.456.155A.746.746,0,0,0,19.661,16.037Z" fill="#000000" stroke="none" stroke-linecap="round" stroke-linejoin="round" stroke-width="0"></path><path d="M1.6,3.257A1,1,0,0,0,2.88,1.719L1.69.728A1,1,0,1,0,.409,2.265Z" fill="#000000" stroke="none" stroke-linecap="round" stroke-linejoin="round" stroke-width="0"></path><path d="M1.4,7.5A1,1,0,1,0,2.676,5.968L1.642,5.105A1,1,0,1,0,.36,6.64Z" fill="#000000" stroke="none" stroke-linecap="round" stroke-linejoin="round" stroke-width="0"></path><path d="M23.079,17.612a4.423,4.423,0,0,0-.919-3.767c-.939-1.067-1.914-1.2-4.429-1.314-.236-.018-.552-.361-1.091-.967a18.722,18.722,0,0,0-2.753-2.62C8.106,4.512,4.95,3.862,4.818,3.837a.993.993,0,0,0-1.152.708,4.186,4.186,0,0,0,1.461,4.01,5.513,5.513,0,0,0-.394,4.887l-3.1-2.483a1,1,0,0,0-1.25,1.562L13.83,23.282a1,1,0,0,0,1.25-1.563l-3.561-2.848a8.088,8.088,0,0,0,3.665.173,3.752,3.752,0,0,1,2.758.311,4.024,4.024,0,0,0,2.07.637,3.083,3.083,0,0,0,1.823-.593c.246.447.135,1.442,1.163,1.442a1,1,0,0,0,1-.935A3.905,3.905,0,0,0,23.079,17.612Zm-2.785.344a1.761,1.761,0,0,1-1.324-.318,5.65,5.65,0,0,0-4.053-.576c-.714.1-3.143.628-6.639-2.046-2.122-1.636-2.293-4.149-1.5-5.324l1.2.713a1,1,0,0,0-.569,1.646A7.706,7.706,0,0,0,10.8,14.139a6.4,6.4,0,0,0,2.447.29A5.3,5.3,0,0,0,16.4,15.461a6.165,6.165,0,0,0,2.826-.746,1.432,1.432,0,0,1,1.435.451,2.41,2.41,0,0,1,.428,2.2A1.5,1.5,0,0,1,20.294,17.956Z" fill="#000000" stroke="none" stroke-linecap="round" stroke-linejoin="round" stroke-width="0"></path></g></svg>