<svg xmlns="http://www.w3.org/2000/svg" version="1.1" xmlns:xlink="http://www.w3.org/1999/xlink" xmlns:svgjs="http://svgjs.com/svgjs" viewBox="0 0 140 140" width="140" height="140"><g transform="matrix(5.833333333333333,0,0,5.833333333333333,0,0)"><path d="M6.250 10.753 A4.500 4.500 0 1 0 15.250 10.753 A4.500 4.500 0 1 0 6.250 10.753 Z" fill="#000000" stroke="none" stroke-linecap="round" stroke-linejoin="round" stroke-width="0"></path><path d="M12,0A12,12,0,1,0,24,12,12.013,12.013,0,0,0,12,0Zm7.457,18.046a1,1,0,0,1,0,1.414,1.015,1.015,0,0,1-1.414,0l-3.335-3.334a.219.219,0,0,0-.279-.026,6.523,6.523,0,1,1,1.682-1.688.25.25,0,0,0,.029.318Z" fill="#000000" stroke="none" stroke-linecap="round" stroke-linejoin="round" stroke-width="0"></path></g></svg>