<svg xmlns="http://www.w3.org/2000/svg" version="1.1" xmlns:xlink="http://www.w3.org/1999/xlink" xmlns:svgjs="http://svgjs.com/svgjs" viewBox="0 0 140 140" width="140" height="140"><g transform="matrix(5.833333333333333,0,0,5.833333333333333,0,0)"><path d="M23.6,11.187l-4-3a1,1,0,0,0-1.6.8v1.25a.25.25,0,0,1-.25.25h-4a.25.25,0,0,1-.25-.25v-4a.25.25,0,0,1,.25-.25H15a1,1,0,0,0,.8-1.6l-3-4a1.036,1.036,0,0,0-1.6,0l-3,4a1,1,0,0,0,.8,1.6h1.25a.25.25,0,0,1,.25.25v4a.25.25,0,0,1-.25.25h-4a.25.25,0,0,1-.25-.25V8.987a1,1,0,0,0-1.6-.8l-4,3a1,1,0,0,0,0,1.6l4,3a1,1,0,0,0,1.6-.8v-1.25a.25.25,0,0,1,.25-.25h4a.25.25,0,0,1,.25.25v4a.25.25,0,0,1-.25.25H9a1,1,0,0,0-.8,1.6l3,4a1,1,0,0,0,1.6,0l3-4a1,1,0,0,0-.8-1.6H13.75a.25.25,0,0,1-.25-.25v-4a.25.25,0,0,1,.25-.25h4a.25.25,0,0,1,.25.25v1.25a1,1,0,0,0,1.6.8l4-3a1,1,0,0,0,0-1.6Z" fill="#000000" stroke="none" stroke-linecap="round" stroke-linejoin="round" stroke-width="0"></path></g></svg>