<svg xmlns="http://www.w3.org/2000/svg" version="1.1" xmlns:xlink="http://www.w3.org/1999/xlink" xmlns:svgjs="http://svgjs.com/svgjs" viewBox="0 0 140 140" width="140" height="140"><g transform="matrix(10,0,0,10,0,0)"><path d="M6.891,5.445,4.452.286A.5.5,0,0,0,4,0H.5A.5.5,0,0,0,0,.5v13a.5.5,0,0,0,.5.5h1a.5.5,0,0,0,.5-.5v-3H3.5A1.5,1.5,0,0,0,5,9V7.5h.5A1.5,1.5,0,0,0,6.891,5.445ZM2.5,4.5a1,1,0,1,1,1-1A1,1,0,0,1,2.5,4.5Z" fill="#000000" stroke="none" stroke-linecap="round" stroke-linejoin="round" stroke-width="0"></path><path d="M9.161,11.742a.751.751,0,0,1-.53-1.281,2.114,2.114,0,0,0,0-2.989.75.75,0,0,1,1.06-1.061,3.613,3.613,0,0,1,0,5.111A.748.748,0,0,1,9.161,11.742Z" fill="#000000" stroke="none" stroke-linecap="round" stroke-linejoin="round" stroke-width="0"></path><path d="M11.583,13.742a.751.751,0,0,1-.531-1.281,4.941,4.941,0,0,0,0-6.989.75.75,0,1,1,1.061-1.061,6.442,6.442,0,0,1,0,9.111A.752.752,0,0,1,11.583,13.742Z" fill="#000000" stroke="none" stroke-linecap="round" stroke-linejoin="round" stroke-width="0"></path></g></svg>