<svg xmlns="http://www.w3.org/2000/svg" version="1.1" xmlns:xlink="http://www.w3.org/1999/xlink" xmlns:svgjs="http://svgjs.com/svgjs" viewBox="0 0 140 140" width="140" height="140"><g transform="matrix(5.833333333333333,0,0,5.833333333333333,0,0)"><path d="M22,0H4.5A2,2,0,0,0,3,.587L.586,3A2.009,2.009,0,0,0,0,4.415V22a2,2,0,0,0,2,2H22a2,2,0,0,0,2-2V2A2,2,0,0,0,22,0ZM5.7,7.5A1.238,1.238,0,0,1,4.5,6.228V2.251A.25.25,0,0,1,4.75,2h14.5a.249.249,0,0,1,.25.25V6.228A1.238,1.238,0,0,1,18.3,7.5ZM15.5,13A3.5,3.5,0,1,1,12,9.5,3.5,3.5,0,0,1,15.5,13Zm-11,6.5a1.113,1.113,0,0,1,1.2-1H18.3a1.113,1.113,0,0,1,1.2,1v2.25a.25.25,0,0,1-.25.25H4.75a.25.25,0,0,1-.25-.25Z" fill="#000000" stroke="none" stroke-linecap="round" stroke-linejoin="round" stroke-width="0"></path><path d="M7.000 2.501 L9.000 2.501 L9.000 6.501 L7.000 6.501 Z" fill="#000000" stroke="none" stroke-linecap="round" stroke-linejoin="round" stroke-width="0"></path></g></svg>