<svg xmlns="http://www.w3.org/2000/svg" version="1.1" xmlns:xlink="http://www.w3.org/1999/xlink" xmlns:svgjs="http://svgjs.com/svgjs" viewBox="0 0 140 140" width="140" height="140"><g transform="matrix(5.833333333333333,0,0,5.833333333333333,0,0)"><path d="M12.766,0A11.218,11.218,0,0,0,3.084,16.909L.049,23.284a.5.5,0,0,0,.666.666l6.376-3.036A11.228,11.228,0,1,0,12.766,0ZM19,9.5A1.5,1.5,0,1,1,17.5,8,1.5,1.5,0,0,1,19,9.5ZM8,8A1.5,1.5,0,1,1,6.5,9.5,1.5,1.5,0,0,1,8,8Zm1.783,5.016a.5.5,0,0,1,.5-.5H15.25a.5.5,0,0,1,.5.5,2.984,2.984,0,0,1-5.967,0Z" fill="#000000" stroke="none" stroke-linecap="round" stroke-linejoin="round" stroke-width="0"></path></g></svg>