<svg xmlns="http://www.w3.org/2000/svg" version="1.1" xmlns:xlink="http://www.w3.org/1999/xlink" xmlns:svgjs="http://svgjs.com/svgjs" viewBox="0 0 140 140" width="140" height="140"><g transform="matrix(5.833333333333333,0,0,5.833333333333333,0,0)"><path d="M11.646,3.853a.5.5,0,0,0,.708,0l3-3A.5.5,0,0,0,15,0H9a.5.5,0,0,0-.354.853Z" fill="#000000" stroke="none" stroke-linecap="round" stroke-linejoin="round" stroke-width="0"></path><path d="M22.941,7.788A.5.5,0,0,0,22.4,7.9l-3,3a.5.5,0,0,0,0,.707l3,3a.5.5,0,0,0,.854-.353v-6A.5.5,0,0,0,22.941,7.788Z" fill="#000000" stroke="none" stroke-linecap="round" stroke-linejoin="round" stroke-width="0"></path><path d="M1.6,7.9A.5.5,0,0,0,.75,8.25v6A.5.5,0,0,0,1.6,14.6l3-3a.5.5,0,0,0,0-.707Z" fill="#000000" stroke="none" stroke-linecap="round" stroke-linejoin="round" stroke-width="0"></path><path d="M15.506,16.786h-.567a6.25,6.25,0,1,0-5.516.178v1.629a2.424,2.424,0,0,0-3.209.126,2.364,2.364,0,0,0,0,3.347L7.928,23.78a.75.75,0,1,0,1.06-1.06L7.274,21.005a.867.867,0,0,1,0-1.225.887.887,0,0,1,1.225,0l1.144,1.143a.75.75,0,0,0,1.28-.53V13.25a1.25,1.25,0,0,1,2.5,0v4.286a.75.75,0,0,0,.75.75h1.333a3.062,3.062,0,0,1,3.059,3.059V23.25a.75.75,0,0,0,1.5,0V21.345A4.564,4.564,0,0,0,15.506,16.786Z" fill="#000000" stroke="none" stroke-linecap="round" stroke-linejoin="round" stroke-width="0"></path></g></svg>