<svg xmlns="http://www.w3.org/2000/svg" version="1.1" xmlns:xlink="http://www.w3.org/1999/xlink" xmlns:svgjs="http://svgjs.com/svgjs" viewBox="0 0 140 140" width="140" height="140"><g transform="matrix(5.833333333333333,0,0,5.833333333333333,0,0)"><path d="M21.566,12.133H16.431a.5.5,0,0,0-.457.3l-1.159,2.606a1.5,1.5,0,0,1-1.358.891h-.015a1.5,1.5,0,0,1-1.357-.868l-2.1-4.489a.251.251,0,0,0-.435-.033l-.618.929a1.5,1.5,0,0,1-1.249.668H2.434a.25.25,0,0,0-.179.424l9,9.263a1.046,1.046,0,0,0,1.5,0l9-9.263a.25.25,0,0,0-.179-.424Z" fill="#000000" stroke="none" stroke-linecap="round" stroke-linejoin="round" stroke-width="0"></path><path d="M23.361,5.166A6.093,6.093,0,0,0,13.67,3.614L12.337,4.829a.5.5,0,0,1-.674,0L10.33,3.614A6.093,6.093,0,0,0,.639,5.166,5.9,5.9,0,0,0,.336,9.8a.5.5,0,0,0,.471.335H7.153a.5.5,0,0,0,.416-.223L8.631,8.318a1.482,1.482,0,0,1,1.362-.664,1.5,1.5,0,0,1,1.246.861L13.2,12.722a.25.25,0,0,0,.455,0l.754-1.7a1.5,1.5,0,0,1,1.37-.89h7.411a.5.5,0,0,0,.472-.334A5.9,5.9,0,0,0,23.361,5.166Z" fill="#000000" stroke="none" stroke-linecap="round" stroke-linejoin="round" stroke-width="0"></path></g></svg>