<svg xmlns="http://www.w3.org/2000/svg" version="1.1" xmlns:xlink="http://www.w3.org/1999/xlink" xmlns:svgjs="http://svgjs.com/svgjs" viewBox="0 0 140 140" width="140" height="140"><g transform="matrix(5.833333333333333,0,0,5.833333333333333,0,0)"><path d="M10.125,14.875h-7a3,3,0,0,0-3,3v4.5a1.5,1.5,0,0,0,2.7.9l2.387-3.2a.5.5,0,0,1,.4-.2H7.634a.5.5,0,0,1,.4.2l2.39,3.2a1.5,1.5,0,0,0,2.7-.9v-4.5A3,3,0,0,0,10.125,14.875Zm1.5,3.5a1,1,0,1,1-1-1A1,1,0,0,1,11.625,18.375Zm-10,0a1,1,0,1,1,1,1A1,1,0,0,1,1.625,18.375Z" fill="#000000" stroke="none" stroke-linecap="round" stroke-linejoin="round" stroke-width="0"></path><path d="M4.786,12.831a.75.75,0,1,0,1,1.115,1.279,1.279,0,0,1,1.671,0,.75.75,0,1,0,1-1.115A2.818,2.818,0,0,0,4.786,12.831Z" fill="#000000" stroke="none" stroke-linecap="round" stroke-linejoin="round" stroke-width="0"></path><path d="M4.452,11.959a3.33,3.33,0,0,1,4.347,0,.75.75,0,1,0,1-1.115,4.871,4.871,0,0,0-6.355,0,.75.75,0,1,0,1,1.115Z" fill="#000000" stroke="none" stroke-linecap="round" stroke-linejoin="round" stroke-width="0"></path><path d="M23.875.875a.75.75,0,0,0-.75-.75h-5a.75.75,0,0,0,0,1.5h5A.75.75,0,0,0,23.875.875Z" fill="#000000" stroke="none" stroke-linecap="round" stroke-linejoin="round" stroke-width="0"></path><path d="M4.375.875a.75.75,0,0,0,.75.75h5a.75.75,0,0,0,0-1.5h-5A.75.75,0,0,0,4.375.875Z" fill="#000000" stroke="none" stroke-linecap="round" stroke-linejoin="round" stroke-width="0"></path><path d="M23.625,5.375a1.5,1.5,0,0,0-1.5-1.5h-.5a.25.25,0,0,1-.25-.25v-.75a.75.75,0,0,0-1.5,0v.75a.249.249,0,0,1-.25.25h-1a2.563,2.563,0,0,1-1.9-.845,3.5,3.5,0,0,0-5.195,0,2.568,2.568,0,0,1-1.9.845h-1a.25.25,0,0,1-.25-.25v-.75a.75.75,0,0,0-1.5,0v.75a.249.249,0,0,1-.25.25h-.5a1.5,1.5,0,0,0,0,3h3.5a2.523,2.523,0,0,1,.632.08.248.248,0,0,1,.183.192.251.251,0,0,1-.094.249l-.059.045a.75.75,0,0,0,.921,1.184,4.729,4.729,0,0,1,.624-.411.249.249,0,0,1,.266.015l.083.057a.249.249,0,0,1,.069.346,2.25,2.25,0,1,0,3.749,0,.249.249,0,0,1,.069-.346l.081-.056a.249.249,0,0,1,.266-.015,4.753,4.753,0,0,1,2.459,4.16.75.75,0,0,0,1.5,0A6.243,6.243,0,0,0,17.9,7.4a.25.25,0,0,1,.089-.441,2.555,2.555,0,0,1,.636-.081h3.5A1.5,1.5,0,0,0,23.625,5.375Zm-9.5,5.25a.75.75,0,1,1,.75-.75A.751.751,0,0,1,14.125,10.625Z" fill="#000000" stroke="none" stroke-linecap="round" stroke-linejoin="round" stroke-width="0"></path></g></svg>