<svg xmlns="http://www.w3.org/2000/svg" version="1.1" xmlns:xlink="http://www.w3.org/1999/xlink" xmlns:svgjs="http://svgjs.com/svgjs" viewBox="0 0 140 140" width="140" height="140"><g transform="matrix(5.833333333333333,0,0,5.833333333333333,0,0)"><path d="M21.114,8.313a.25.25,0,0,1-.159-.209,9,9,0,0,0-17.91,0,.25.25,0,0,1-.159.209A4.5,4.5,0,0,0,4.121,17,.814.814,0,0,0,5,16.188V9A7,7,0,0,1,19,9v7.188a.815.815,0,0,0,.881.809,4.5,4.5,0,0,0,1.233-8.684Z" fill="#000000" stroke="none" stroke-linecap="round" stroke-linejoin="round" stroke-width="0"></path><path d="M7.000 12.000 A5.000 5.000 0 1 0 17.000 12.000 A5.000 5.000 0 1 0 7.000 12.000 Z" fill="#000000" stroke="none" stroke-linecap="round" stroke-linejoin="round" stroke-width="0"></path><path d="M12,18.5a9.055,9.055,0,0,0-7.933,4.749A.5.5,0,0,0,4.5,24h15a.5.5,0,0,0,.433-.751A9.055,9.055,0,0,0,12,18.5Z" fill="#000000" stroke="none" stroke-linecap="round" stroke-linejoin="round" stroke-width="0"></path></g></svg>