<svg xmlns="http://www.w3.org/2000/svg" version="1.1" xmlns:xlink="http://www.w3.org/1999/xlink" xmlns:svgjs="http://svgjs.com/svgjs" viewBox="0 0 140 140" width="140" height="140"><g transform="matrix(5.833333333333333,0,0,5.833333333333333,0,0)"><path d="M22,0H5.5a2,2,0,0,0-2,2V18.5a2,2,0,0,0,2,2H22a2,2,0,0,0,2-2V2A2,2,0,0,0,22,0ZM9.667,12.433a1,1,0,0,1,1.727-.108l.83,1.246a.25.25,0,0,0,.428-.021l2.437-4.527A.977.977,0,0,1,16,8.5a1,1,0,0,1,.878.574l3.578,7.6a.5.5,0,0,1-.453.713H8a.5.5,0,0,1-.447-.724ZM7.75,6.247a2,2,0,1,1,2,2A2,2,0,0,1,7.75,6.247Z" fill="#000000" stroke="none" stroke-linecap="round" stroke-linejoin="round" stroke-width="0"></path><path d="M19.5,22H2.5a.5.5,0,0,1-.5-.5V4.5a1,1,0,0,0-2,0V22a2,2,0,0,0,2,2H19.5a1,1,0,0,0,0-2Z" fill="#000000" stroke="none" stroke-linecap="round" stroke-linejoin="round" stroke-width="0"></path></g></svg>