<svg xmlns="http://www.w3.org/2000/svg" version="1.1" xmlns:xlink="http://www.w3.org/1999/xlink" xmlns:svgjs="http://svgjs.com/svgjs" viewBox="0 0 140 140" width="140" height="140"><g transform="matrix(5.833333333333333,0,0,5.833333333333333,0,0)"><path d="M23.064,9.715a.5.5,0,0,0-.673-.065l-1.452,1.093c-.012.009-.025.019-.037.03l-.039.027-1.656,1.247a.221.221,0,0,0-.088.189,1.31,1.31,0,0,1-.009.272,1.5,1.5,0,1,1-1.274-1.7,1.354,1.354,0,0,1,.265.067.214.214,0,0,0,.2-.031l.7-.524a.5.5,0,0,0,.1-.7l-.86-1.145a.5.5,0,0,0-.392-.2,1.4,1.4,0,0,1-.156-.012,1.5,1.5,0,1,1,1.7-1.274,1.537,1.537,0,0,1-.032.153.5.5,0,0,0,.082.432L20.3,8.72a.5.5,0,0,0,.7.1l1.257-.946a.5.5,0,0,0,.191-.312A3.173,3.173,0,0,0,22.5,7,3.5,3.5,0,0,0,19,3.5a.008.008,0,0,1-.009-.008A3.755,3.755,0,0,0,15.25,0a3.714,3.714,0,0,0-2.31.807.5.5,0,0,0-.19.393V10a.75.75,0,0,1-1.5,0V1.2a.5.5,0,0,0-.19-.393A3.714,3.714,0,0,0,8.75,0,3.755,3.755,0,0,0,5.009,3.492.008.008,0,0,1,5,3.5,3.5,3.5,0,0,0,1.5,7a3.173,3.173,0,0,0,.053.561.5.5,0,0,0,.191.312L3,8.82a.5.5,0,0,0,.7-.1L4.56,7.578a.5.5,0,0,0,.082-.433,1.479,1.479,0,0,1-.032-.153,1.5,1.5,0,1,1,1.7,1.274,1.4,1.4,0,0,1-.156.012.5.5,0,0,0-.392.2L4.9,9.623a.5.5,0,0,0,.1.7l.7.524a.217.217,0,0,0,.2.032,1.288,1.288,0,0,1,.265-.068,1.5,1.5,0,1,1-1.274,1.7,1.374,1.374,0,0,1-.01-.271.218.218,0,0,0-.088-.19L3.108,10.779l-.01-.006a.429.429,0,0,0-.035-.028L1.609,9.65a.5.5,0,0,0-.673.065A3.484,3.484,0,0,0,0,12a3.668,3.668,0,0,0,1.651,2.916.5.5,0,0,1,.171.623,3.475,3.475,0,0,0,1.942,4.718.5.5,0,0,0,.531-.114L5.97,18.469a.218.218,0,0,0,.059-.2A1.329,1.329,0,0,1,6,18a1.5,1.5,0,1,1,1.5,1.5,1.279,1.279,0,0,1-.271-.03.219.219,0,0,0-.2.06L5.411,21.149A.5.5,0,0,0,5.3,21.7a3.721,3.721,0,0,0,5.755,1.5.5.5,0,0,0,.191-.393V20.5a.75.75,0,0,1,1.5,0v2.3a.5.5,0,0,0,.191.393A3.721,3.721,0,0,0,18.7,21.7a.5.5,0,0,0-.107-.547L16.97,19.53a.222.222,0,0,0-.2-.06,1.279,1.279,0,0,1-.271.03A1.5,1.5,0,1,1,18,18a1.329,1.329,0,0,1-.029.27.218.218,0,0,0,.059.2L19.7,20.144a.5.5,0,0,0,.531.114,3.475,3.475,0,0,0,1.942-4.718.5.5,0,0,1,.171-.623A3.668,3.668,0,0,0,24,12,3.484,3.484,0,0,0,23.064,9.715Z" fill="#000000" stroke="none" stroke-linecap="round" stroke-linejoin="round" stroke-width="0"></path></g></svg>