<svg xmlns="http://www.w3.org/2000/svg" version="1.1" xmlns:xlink="http://www.w3.org/1999/xlink" xmlns:svgjs="http://svgjs.com/svgjs" viewBox="0 0 140 140" width="140" height="140"><g transform="matrix(5.833333333333333,0,0,5.833333333333333,0,0)"><path d="M7,14a1,1,0,0,0,.707-1.707l-.125-.125a.25.25,0,0,1-.022-.329A7.775,7.775,0,0,0,9,7,7.775,7.775,0,0,0,7.56,2.161a.25.25,0,0,1,.022-.329l.125-.125A1,1,0,0,0,6.293.293l-6,6a1,1,0,0,0,0,1.414l6,6A1,1,0,0,0,7,14ZM5.793,3.621A.252.252,0,0,1,6,3.549a.254.254,0,0,1,.184.116A6.176,6.176,0,0,1,7,7a6.194,6.194,0,0,1-.817,3.336.251.251,0,0,1-.389.044L2.768,7.354a.5.5,0,0,1,0-.708Z" fill="#000000" stroke="none" stroke-linecap="round" stroke-linejoin="round" stroke-width="0"></path><path d="M10.5,7a1,1,0,0,0,1,1H13a1,1,0,0,0,0-2H11.5A1,1,0,0,0,10.5,7Z" fill="#000000" stroke="none" stroke-linecap="round" stroke-linejoin="round" stroke-width="0"></path><path d="M19,7a1,1,0,0,0-1-1H16.5a1,1,0,0,0,0,2H18A1,1,0,0,0,19,7Z" fill="#000000" stroke="none" stroke-linecap="round" stroke-linejoin="round" stroke-width="0"></path><path d="M21.5,8H23a1,1,0,0,0,0-2H21.5a1,1,0,0,0,0,2Z" fill="#000000" stroke="none" stroke-linecap="round" stroke-linejoin="round" stroke-width="0"></path><path d="M10.75,22h-.5a.25.25,0,0,1-.25-.25V16.875A1.877,1.877,0,0,0,8.125,15H7.25a1,1,0,0,0,0,2h.5a.25.25,0,0,1,.25.25v4.5a.25.25,0,0,1-.25.25h-.5a1,1,0,0,0,0,2h3.5a1,1,0,0,0,0-2Z" fill="#000000" stroke="none" stroke-linecap="round" stroke-linejoin="round" stroke-width="0"></path><path d="M14.833,15a2.752,2.752,0,0,0-2.75,2.75v3.5a2.75,2.75,0,0,0,5.5,0v-3.5A2.752,2.752,0,0,0,14.833,15Zm.75,6.25a.75.75,0,0,1-1.5,0v-3.5a.75.75,0,0,1,1.5,0Z" fill="#000000" stroke="none" stroke-linecap="round" stroke-linejoin="round" stroke-width="0"></path><path d="M21.25,15a2.752,2.752,0,0,0-2.75,2.75v3.5a2.75,2.75,0,0,0,5.5,0v-3.5A2.752,2.752,0,0,0,21.25,15ZM22,21.25a.75.75,0,0,1-1.5,0v-3.5a.75.75,0,0,1,1.5,0Z" fill="#000000" stroke="none" stroke-linecap="round" stroke-linejoin="round" stroke-width="0"></path></g></svg>