<svg xmlns="http://www.w3.org/2000/svg" version="1.1" xmlns:xlink="http://www.w3.org/1999/xlink" xmlns:svgjs="http://svgjs.com/svgjs" viewBox="0 0 140 140" width="140" height="140"><g transform="matrix(5.833333333333333,0,0,5.833333333333333,0,0)"><path d="M15.071,11.538a.037.037,0,0,0-.041-.023.036.036,0,0,0-.03.036v7.033a.25.25,0,0,0,.25.25h4.821A1.069,1.069,0,0,0,21,17.666v-5.25a.25.25,0,0,0-.25-.25H16A1,1,0,0,1,15.071,11.538Z" fill="#000000" stroke="none" stroke-linecap="round" stroke-linejoin="round" stroke-width="0"></path><path d="M.08,9.955a.564.564,0,0,0,.484.854H2.25a.25.25,0,0,0,.25-.25V6.824A.251.251,0,0,0,2.035,6.7Z" fill="#000000" stroke="none" stroke-linecap="round" stroke-linejoin="round" stroke-width="0"></path><path d="M13.5,5.416a.25.25,0,0,0-.25-.25h-9a.25.25,0,0,0-.25.25V17.834a1,1,0,0,0,1,1h8.25a.25.25,0,0,0,.25-.25Z" fill="#000000" stroke="none" stroke-linecap="round" stroke-linejoin="round" stroke-width="0"></path><path d="M23.959,9.912,22.075,5.321a.249.249,0,0,0-.231-.155h-7.36a.253.253,0,0,0-.208.111.25.25,0,0,0-.023.234c.288.7.056.137,1.974,4.809a.563.563,0,0,0,.523.346h6.685A.551.551,0,0,0,23.959,9.912Z" fill="#000000" stroke="none" stroke-linecap="round" stroke-linejoin="round" stroke-width="0"></path></g></svg>