<svg xmlns="http://www.w3.org/2000/svg" version="1.1" xmlns:xlink="http://www.w3.org/1999/xlink" xmlns:svgjs="http://svgjs.com/svgjs" viewBox="0 0 140 140" width="140" height="140"><g transform="matrix(5.833333333333333,0,0,5.833333333333333,0,0)"><path d="M8.250 12.000 A3.750 3.750 0 1 0 15.750 12.000 A3.750 3.750 0 1 0 8.250 12.000 Z" fill="#000000" stroke="none" stroke-linecap="round" stroke-linejoin="round" stroke-width="0"></path><path d="M6.25,12a1,1,0,0,0-1-1H1a1,1,0,0,0,0,2H5.25A1,1,0,0,0,6.25,12Z" fill="#000000" stroke="none" stroke-linecap="round" stroke-linejoin="round" stroke-width="0"></path><path d="M6.793,8.207A1,1,0,0,0,8.207,6.793l-1.5-1.5A1,1,0,0,0,5.293,6.707Z" fill="#000000" stroke="none" stroke-linecap="round" stroke-linejoin="round" stroke-width="0"></path><path d="M12,17.75a1,1,0,0,0-1,1V23a1,1,0,0,0,2,0V18.75A1,1,0,0,0,12,17.75Z" fill="#000000" stroke="none" stroke-linecap="round" stroke-linejoin="round" stroke-width="0"></path><path d="M6.793,15.793l-1.5,1.5a1,1,0,0,0,1.414,1.414l1.5-1.5a1,1,0,0,0-1.414-1.414Z" fill="#000000" stroke="none" stroke-linecap="round" stroke-linejoin="round" stroke-width="0"></path><path d="M23,11H18.75a1,1,0,0,0,0,2H23a1,1,0,0,0,0-2Z" fill="#000000" stroke="none" stroke-linecap="round" stroke-linejoin="round" stroke-width="0"></path><path d="M17.207,15.793a1,1,0,0,0-1.414,1.414l1.5,1.5a1,1,0,0,0,1.414-1.414Z" fill="#000000" stroke="none" stroke-linecap="round" stroke-linejoin="round" stroke-width="0"></path><path d="M12,6.25a1,1,0,0,0,1-1V1a1,1,0,0,0-2,0V5.25A1,1,0,0,0,12,6.25Z" fill="#000000" stroke="none" stroke-linecap="round" stroke-linejoin="round" stroke-width="0"></path><path d="M17.207,8.207l1.5-1.5a1,1,0,1,0-1.414-1.414l-1.5,1.5a1,1,0,0,0,1.414,1.414Z" fill="#000000" stroke="none" stroke-linecap="round" stroke-linejoin="round" stroke-width="0"></path></g></svg>