<svg xmlns="http://www.w3.org/2000/svg" version="1.1" xmlns:xlink="http://www.w3.org/1999/xlink" xmlns:svgjs="http://svgjs.com/svgjs" viewBox="0 0 140 140" width="140" height="140"><g transform="matrix(5.833333333333333,0,0,5.833333333333333,0,0)"><path d="M8.000 12.000 A4.000 4.000 0 1 0 16.000 12.000 A4.000 4.000 0 1 0 8.000 12.000 Z" fill="#000000" stroke="none" stroke-linecap="round" stroke-linejoin="round" stroke-width="0"></path><path d="M23,11H21.377a.5.5,0,0,1-.493-.421,9.017,9.017,0,0,0-7.463-7.463A.5.5,0,0,1,13,2.623V1a1,1,0,0,0-2,0V2.623a.5.5,0,0,1-.421.493,9.017,9.017,0,0,0-7.463,7.463A.5.5,0,0,1,2.623,11H1a1,1,0,0,0,0,2H2.623a.5.5,0,0,1,.493.421,9.017,9.017,0,0,0,7.463,7.463.5.5,0,0,1,.421.493V23a1,1,0,0,0,2,0V21.377a.5.5,0,0,1,.421-.493,9.017,9.017,0,0,0,7.463-7.463A.5.5,0,0,1,21.377,13H23a1,1,0,0,0,0-2ZM12,19a7,7,0,1,1,7-7A7.008,7.008,0,0,1,12,19Z" fill="#000000" stroke="none" stroke-linecap="round" stroke-linejoin="round" stroke-width="0"></path></g></svg>