<svg xmlns="http://www.w3.org/2000/svg" version="1.1" xmlns:xlink="http://www.w3.org/1999/xlink" xmlns:svgjs="http://svgjs.com/svgjs" viewBox="0 0 140 140" width="140" height="140"><g transform="matrix(5.833333333333333,0,0,5.833333333333333,0,0)"><path d="M14,4.5a4.5,4.5,0,0,0-9,0v9.438a.248.248,0,0,1-.06.162A5.941,5.941,0,0,0,3.5,18a6,6,0,0,0,12,0,5.941,5.941,0,0,0-1.44-3.9.248.248,0,0,1-.06-.162ZM9.5,22a4,4,0,0,1-2.8-6.856A1,1,0,0,0,7,14.43V4.5a2.5,2.5,0,0,1,5,0v9.93a1,1,0,0,0,.3.714A4,4,0,0,1,9.5,22Z" fill="#000000" stroke="none" stroke-linecap="round" stroke-linejoin="round" stroke-width="0"></path><path d="M10.611,16.337a.25.25,0,0,1-.111-.208V8.5a1,1,0,0,0-2,0v7.629a.25.25,0,0,1-.111.208,2,2,0,1,0,2.222,0Z" fill="#000000" stroke="none" stroke-linecap="round" stroke-linejoin="round" stroke-width="0"></path><path d="M19.5,11.5H17a1,1,0,0,0,0,2h2.5a1,1,0,0,0,0-2Z" fill="#000000" stroke="none" stroke-linecap="round" stroke-linejoin="round" stroke-width="0"></path><path d="M17,5.5h2.5a1,1,0,0,0,0-2H17a1,1,0,0,0,0,2Z" fill="#000000" stroke="none" stroke-linecap="round" stroke-linejoin="round" stroke-width="0"></path><path d="M19.5,7.5H17a1,1,0,0,0,0,2h2.5a1,1,0,0,0,0-2Z" fill="#000000" stroke="none" stroke-linecap="round" stroke-linejoin="round" stroke-width="0"></path></g></svg>