<svg xmlns="http://www.w3.org/2000/svg" version="1.1" xmlns:xlink="http://www.w3.org/1999/xlink" xmlns:svgjs="http://svgjs.com/svgjs" viewBox="0 0 140 140" width="140" height="140"><g transform="matrix(5.833333333333333,0,0,5.833333333333333,0,0)"><path d="M11,4.5a4.5,4.5,0,0,0-9,0v9.438a.249.249,0,0,1-.061.162A5.946,5.946,0,0,0,.5,18a6,6,0,1,0,10.56-3.9.248.248,0,0,1-.06-.162ZM6.5,22a4,4,0,0,1-4-4,3.964,3.964,0,0,1,1.2-2.856A1,1,0,0,0,4,14.43V4.5a2.5,2.5,0,0,1,5,0v9.93a1,1,0,0,0,.3.714A4,4,0,0,1,6.5,22Z" fill="#000000" stroke="none" stroke-linecap="round" stroke-linejoin="round" stroke-width="0"></path><path d="M7.611,16.337a.248.248,0,0,1-.111-.208V8.5a1,1,0,0,0-2,0v7.629a.25.25,0,0,1-.111.208,2,2,0,1,0,2.222,0Z" fill="#000000" stroke="none" stroke-linecap="round" stroke-linejoin="round" stroke-width="0"></path><path d="M23.334,15.638a.833.833,0,0,0-.667-1.332H20.75a.25.25,0,0,1-.25-.25V3.5a1.5,1.5,0,0,0-3,0V14.056a.25.25,0,0,1-.25.25H15.333a.832.832,0,0,0-.667,1.332h0l3.667,4.887a.832.832,0,0,0,1.334,0Z" fill="#000000" stroke="none" stroke-linecap="round" stroke-linejoin="round" stroke-width="0"></path></g></svg>