<svg xmlns="http://www.w3.org/2000/svg" version="1.1" xmlns:xlink="http://www.w3.org/1999/xlink" xmlns:svgjs="http://svgjs.com/svgjs" viewBox="0 0 140 140" width="140" height="140"><g transform="matrix(5.833333333333333,0,0,5.833333333333333,0,0)"><path d="M17.129,17H14.5a.25.25,0,0,1-.25-.25V10.373a2.375,2.375,0,0,0-4.75,0V18.9a.25.25,0,0,1-.454.145l-.885-1.242a2.075,2.075,0,0,0-3.672,1.932l2.1,3.991A.5.5,0,0,0,7.032,24H21.25a.5.5,0,0,0,.5-.5V21.845A4.8,4.8,0,0,0,17.129,17Z" fill="#000000" stroke="none" stroke-linecap="round" stroke-linejoin="round" stroke-width="0"></path><path d="M11.75,5a1,1,0,0,0,1-1V1a1,1,0,1,0-2,0V4A1,1,0,0,0,11.75,5Z" fill="#000000" stroke="none" stroke-linecap="round" stroke-linejoin="round" stroke-width="0"></path><path d="M16.346,6.316l2.122-2.122A1,1,0,0,0,17.053,2.78L14.932,4.9a1,1,0,1,0,1.414,1.414Z" fill="#000000" stroke="none" stroke-linecap="round" stroke-linejoin="round" stroke-width="0"></path><path d="M16.25,9.5a1,1,0,0,0,1,1h3a1,1,0,0,0,0-2h-3A1,1,0,0,0,16.25,9.5Z" fill="#000000" stroke="none" stroke-linecap="round" stroke-linejoin="round" stroke-width="0"></path><path d="M7.154,6.316A1,1,0,0,0,8.568,4.9L6.447,2.78A1,1,0,0,0,5.033,4.194Z" fill="#000000" stroke="none" stroke-linecap="round" stroke-linejoin="round" stroke-width="0"></path><path d="M7.25,9.5a1,1,0,0,0-1-1h-3a1,1,0,0,0,0,2h3A1,1,0,0,0,7.25,9.5Z" fill="#000000" stroke="none" stroke-linecap="round" stroke-linejoin="round" stroke-width="0"></path></g></svg>