<svg xmlns="http://www.w3.org/2000/svg" version="1.1" xmlns:xlink="http://www.w3.org/1999/xlink" xmlns:svgjs="http://svgjs.com/svgjs" viewBox="0 0 140 140" width="140" height="140"><g transform="matrix(5.833333333333333,0,0,5.833333333333333,0,0)"><path d="M23.53,11.47l-11-11a.749.749,0,0,0-1.06,0l-11,11a.749.749,0,0,0,0,1.06l11,11a.748.748,0,0,0,1.06,0l11-11A.749.749,0,0,0,23.53,11.47ZM7.31,11.241A4.732,4.732,0,0,1,9.964,7.722a.22.22,0,0,0,.119-.247L10.07,7.42a.75.75,0,0,1,1.128-.8l1.2.749A.749.749,0,0,1,12.636,8.4l-.749,1.2a.75.75,0,0,1-.636.352.657.657,0,0,1-.124-.011.747.747,0,0,1-.607-.57.177.177,0,0,0-.268-.109,3.24,3.24,0,0,0-1.46,2.22.751.751,0,0,1-.74.631.808.808,0,0,1-.12-.009A.751.751,0,0,1,7.31,11.241Zm6.389,5.2a4.733,4.733,0,0,1-1.7.313A4.682,4.682,0,0,1,9.316,15.9a.219.219,0,0,0-.273.02L9,15.962a.751.751,0,0,1-1.262-.575l.05-1.413a.762.762,0,0,1,.775-.724l1.413.049a.751.751,0,0,1,.486,1.3.162.162,0,0,0-.051.144.165.165,0,0,0,.088.125,3.286,3.286,0,0,0,2.665.169.75.75,0,0,1,.536,1.4ZM17.065,14l-1.248.665a.742.742,0,0,1-.353.088.772.772,0,0,1-.218-.032.757.757,0,0,1-.444-.365L14.138,13.1a.75.75,0,0,1,.879-1.071h0a.168.168,0,0,0,.153-.027.171.171,0,0,0,.066-.142,3.181,3.181,0,0,0-1.111-2.322.75.75,0,0,1,.982-1.133A4.751,4.751,0,0,1,16.75,12a2.67,2.67,0,0,1-.027.335.251.251,0,0,0,.174.272l.035.01A.751.751,0,0,1,17.065,14Z" fill="#000000" stroke="none" stroke-linecap="round" stroke-linejoin="round" stroke-width="0"></path></g></svg>