<svg xmlns="http://www.w3.org/2000/svg" version="1.1" xmlns:xlink="http://www.w3.org/1999/xlink" xmlns:svgjs="http://svgjs.com/svgjs" viewBox="0 0 140 140" width="140" height="140"><g transform="matrix(5.833333333333333,0,0,5.833333333333333,0,0)"><path d="M11.500 3.500 A3.000 3.000 0 1 0 17.500 3.500 A3.000 3.000 0 1 0 11.500 3.500 Z" fill="#000000" stroke="none" stroke-linecap="round" stroke-linejoin="round" stroke-width="0"></path><path d="M12.39,12.8a.252.252,0,0,0,.131.179.249.249,0,0,0,.221.005A11.28,11.28,0,0,1,18.719,12,.25.25,0,0,0,19,11.739,4.46,4.46,0,0,0,14.5,7.5a4.53,4.53,0,0,0-3.6,1.76.25.25,0,0,0,.005.311A6.96,6.96,0,0,1,12.39,12.8Z" fill="#000000" stroke="none" stroke-linecap="round" stroke-linejoin="round" stroke-width="0"></path><path d="M0,17.5a.5.5,0,0,0,.5.5H2.31a.25.25,0,0,1,.249.229L3,23.541A.5.5,0,0,0,3.5,24h4a.5.5,0,0,0,.5-.459l.443-5.312A.25.25,0,0,1,8.69,18h.945a.25.25,0,0,0,.214-.379,2.5,2.5,0,0,1,.6-3.232c.144-.115.293-.22.443-.325A.247.247,0,0,0,11,13.853,5.5,5.5,0,0,0,0,14Z" fill="#000000" stroke="none" stroke-linecap="round" stroke-linejoin="round" stroke-width="0"></path><path d="M2.000 3.500 A3.500 3.500 0 1 0 9.000 3.500 A3.500 3.500 0 1 0 2.000 3.500 Z" fill="#000000" stroke="none" stroke-linecap="round" stroke-linejoin="round" stroke-width="0"></path><path d="M15.750 22.250 A1.750 1.750 0 1 0 19.250 22.250 A1.750 1.750 0 1 0 15.750 22.250 Z" fill="#000000" stroke="none" stroke-linecap="round" stroke-linejoin="round" stroke-width="0"></path><path d="M11.379,15.627a1,1,0,0,0,1.242,1.567,7.826,7.826,0,0,1,9.758,0,1,1,0,1,0,1.242-1.567A9.819,9.819,0,0,0,11.379,15.627Z" fill="#000000" stroke="none" stroke-linecap="round" stroke-linejoin="round" stroke-width="0"></path><path d="M13.854,18.452a1,1,0,1,0,1.293,1.525,3.586,3.586,0,0,1,4.707,0,1,1,0,1,0,1.293-1.525A5.621,5.621,0,0,0,13.854,18.452Z" fill="#000000" stroke="none" stroke-linecap="round" stroke-linejoin="round" stroke-width="0"></path><path d="M11.500 3.500 A3.000 3.000 0 1 0 17.500 3.500 A3.000 3.000 0 1 0 11.500 3.500 Z" fill="#000000" stroke="none" stroke-linecap="round" stroke-linejoin="round" stroke-width="0"></path><path d="M12.39,12.8a.252.252,0,0,0,.131.179.249.249,0,0,0,.221.005A11.28,11.28,0,0,1,18.719,12,.25.25,0,0,0,19,11.739,4.46,4.46,0,0,0,14.5,7.5a4.53,4.53,0,0,0-3.6,1.76.25.25,0,0,0,.005.311A6.96,6.96,0,0,1,12.39,12.8Z" fill="#000000" stroke="none" stroke-linecap="round" stroke-linejoin="round" stroke-width="0"></path><path d="M0,17.5a.5.5,0,0,0,.5.5H2.31a.25.25,0,0,1,.249.229L3,23.541A.5.5,0,0,0,3.5,24h4a.5.5,0,0,0,.5-.459l.443-5.312A.25.25,0,0,1,8.69,18h.945a.25.25,0,0,0,.214-.379,2.5,2.5,0,0,1,.6-3.232c.144-.115.293-.22.443-.325A.247.247,0,0,0,11,13.853,5.5,5.5,0,0,0,0,14Z" fill="#000000" stroke="none" stroke-linecap="round" stroke-linejoin="round" stroke-width="0"></path><path d="M2.000 3.500 A3.500 3.500 0 1 0 9.000 3.500 A3.500 3.500 0 1 0 2.000 3.500 Z" fill="#000000" stroke="none" stroke-linecap="round" stroke-linejoin="round" stroke-width="0"></path><path d="M15.750 22.250 A1.750 1.750 0 1 0 19.250 22.250 A1.750 1.750 0 1 0 15.750 22.250 Z" fill="#000000" stroke="none" stroke-linecap="round" stroke-linejoin="round" stroke-width="0"></path><path d="M11.379,15.627a1,1,0,0,0,1.242,1.567,7.826,7.826,0,0,1,9.758,0,1,1,0,1,0,1.242-1.567A9.819,9.819,0,0,0,11.379,15.627Z" fill="#000000" stroke="none" stroke-linecap="round" stroke-linejoin="round" stroke-width="0"></path><path d="M13.854,18.452a1,1,0,1,0,1.293,1.525,3.586,3.586,0,0,1,4.707,0,1,1,0,1,0,1.293-1.525A5.621,5.621,0,0,0,13.854,18.452Z" fill="#000000" stroke="none" stroke-linecap="round" stroke-linejoin="round" stroke-width="0"></path></g></svg>