<svg xmlns="http://www.w3.org/2000/svg" version="1.1" xmlns:xlink="http://www.w3.org/1999/xlink" xmlns:svgjs="http://svgjs.com/svgjs" viewBox="0 0 140 140" width="140" height="140"><g transform="matrix(5.833333333333333,0,0,5.833333333333333,0,0)"><path d="M12,4.251A7.75,7.75,0,1,0,19.75,12,7.759,7.759,0,0,0,12,4.251Zm3,9H11.5a.75.75,0,0,1-.75-.75V7a.75.75,0,0,1,1.5,0v4.75H15a.75.75,0,0,1,0,1.5Z" fill="#000000" stroke="none" stroke-linecap="round" stroke-linejoin="round" stroke-width="0"></path><path d="M19.5,0H4.5A4.5,4.5,0,0,0,0,4.5v15A4.505,4.505,0,0,0,4.5,24h15A4.505,4.505,0,0,0,24,19.5V4.5A4.5,4.5,0,0,0,19.5,0Zm1.75,12A9.25,9.25,0,1,1,12,2.751,9.26,9.26,0,0,1,21.25,12Z" fill="#000000" stroke="none" stroke-linecap="round" stroke-linejoin="round" stroke-width="0"></path></g></svg>