<svg xmlns="http://www.w3.org/2000/svg" version="1.1" xmlns:xlink="http://www.w3.org/1999/xlink" xmlns:svgjs="http://svgjs.com/svgjs" viewBox="0 0 140 140" width="140" height="140"><g transform="matrix(5.833333333333333,0,0,5.833333333333333,0,0)"><path d="M19.5,9.5h-.75V6.75A6.751,6.751,0,0,0,5.533,4.811a1.25,1.25,0,1,0,2.395.717A4.251,4.251,0,0,1,16.25,6.75V9a.5.5,0,0,1-.5.5H4.5a2,2,0,0,0-2,2V22a2,2,0,0,0,2,2h15a2,2,0,0,0,2-2V11.5A2,2,0,0,0,19.5,9.5Zm-7.5,9a2,2,0,1,1,2-2A2,2,0,0,1,12,18.5Z" fill="#000000" stroke="none" stroke-linecap="round" stroke-linejoin="round" stroke-width="0"></path></g></svg>