<svg xmlns="http://www.w3.org/2000/svg" version="1.1" xmlns:xlink="http://www.w3.org/1999/xlink" xmlns:svgjs="http://svgjs.com/svgjs" viewBox="0 0 140 140" width="140" height="140"><g transform="matrix(5.833333333333333,0,0,5.833333333333333,0,0)"><path d="M10.499 7.000 A1.500 1.500 0 1 0 13.499 7.000 A1.500 1.500 0 1 0 10.499 7.000 Z" fill="#000000" stroke="none" stroke-linecap="round" stroke-linejoin="round" stroke-width="0"></path><path d="M12.291,11.437A.25.25,0,0,0,12.118,11c-.039,0-.079,0-.119,0a4,4,0,1,1,4-4,3.928,3.928,0,0,1-.8,2.375.25.25,0,0,0,.264.392,7.926,7.926,0,0,1,5.591.573.25.25,0,0,0,.266-.027,20.949,20.949,0,0,0,2.1-1.9,2.034,2.034,0,0,0,0-2.837C20.806,2.869,16.486,0,12.146,0h-.293C7.512,0,3.192,2.87.578,5.58a2.035,2.035,0,0,0,0,2.836c2.283,2.368,5.865,4.852,9.617,5.446a.248.248,0,0,0,.259-.128A8.06,8.06,0,0,1,12.291,11.437Z" fill="#000000" stroke="none" stroke-linecap="round" stroke-linejoin="round" stroke-width="0"></path><path d="M17.5,11A6.5,6.5,0,1,0,24,17.5,6.508,6.508,0,0,0,17.5,11Zm3.474,5.355-2.9,3.874a1.751,1.751,0,0,1-2.64.185l-1.5-1.5A1,1,0,1,1,15.343,17.5l1.094,1.094a.25.25,0,0,0,.377-.026l2.558-3.413a1,1,0,0,1,1.6,1.2Z" fill="#000000" stroke="none" stroke-linecap="round" stroke-linejoin="round" stroke-width="0"></path></g></svg>