<svg xmlns="http://www.w3.org/2000/svg" version="1.1" xmlns:xlink="http://www.w3.org/1999/xlink" xmlns:svgjs="http://svgjs.com/svgjs" viewBox="0 0 140 140" width="140" height="140"><g transform="matrix(5.833333333333333,0,0,5.833333333333333,0,0)"><path d="M9.5,21.5h-3A.5.5,0,0,0,6,22a2,2,0,0,0,4,0A.5.5,0,0,0,9.5,21.5Z" fill="#000000" stroke="none" stroke-linecap="round" stroke-linejoin="round" stroke-width="0"></path><path d="M11.619,6.789A6.091,6.091,0,0,0,9.5,5.731V4.5a1.5,1.5,0,1,0-3,0v1.23c-2.921.791-5,3.777-5,7.27v.646a13.771,13.771,0,0,1-1.447,6.13A.5.5,0,0,0,.5,20.5h15a.5.5,0,0,0,.447-.724,13.785,13.785,0,0,1-1.447-6.13V13a8.541,8.541,0,0,0-.215-1.915A7.009,7.009,0,0,1,11.619,6.789Z" fill="#000000" stroke="none" stroke-linecap="round" stroke-linejoin="round" stroke-width="0"></path><path d="M18.5,0A5.5,5.5,0,1,0,24,5.5,5.5,5.5,0,0,0,18.5,0ZM17.375,8.126a.744.744,0,0,1-.53-.22l-1.5-1.5a.75.75,0,1,1,1.06-1.06l.97.969L20.6,3.1a.75.75,0,0,1,1.06,1.06l-3.75,3.75A.744.744,0,0,1,17.375,8.126Z" fill="#000000" stroke="none" stroke-linecap="round" stroke-linejoin="round" stroke-width="0"></path></g></svg>