<svg xmlns="http://www.w3.org/2000/svg" version="1.1" xmlns:xlink="http://www.w3.org/1999/xlink" xmlns:svgjs="http://svgjs.com/svgjs" viewBox="0 0 140 140" width="140" height="140"><g transform="matrix(5.833333333333333,0,0,5.833333333333333,0,0)"><path d="M5,2H9.5A1.5,1.5,0,0,1,11,3.5V5a1,1,0,1,0,2,0V3.5A3.5,3.5,0,0,0,9.5,0H5A1,1,0,0,0,5,2Z" fill="#000000" stroke="none" stroke-linecap="round" stroke-linejoin="round" stroke-width="0"></path><path d="M19.5,7.5H4.5A4.5,4.5,0,0,0,0,12v9.92a2.056,2.056,0,0,0,.615,1.474A2.1,2.1,0,0,0,2.1,24h.029c1.949-.026,2.248-.6,4.192-4.361l.723-1.394A2.519,2.519,0,0,1,9.21,17h5.579a2.5,2.5,0,0,1,2.145,1.214c.321.614.6,1.161.853,1.647C19.593,23.364,19.919,24,21.859,24h0a2.131,2.131,0,0,0,1.515-.625A2.1,2.1,0,0,0,24,21.88V12A4.5,4.5,0,0,0,19.5,7.5Zm-12.25,6H6.5A.5.5,0,0,0,6,14v.75a.75.75,0,0,1-1.5,0V14a.5.5,0,0,0-.5-.5H3.25a.75.75,0,0,1,0-1.5H4a.5.5,0,0,0,.5-.5v-.75a.75.75,0,1,1,1.5,0v.75a.5.5,0,0,0,.5.5h.75a.75.75,0,0,1,0,1.5Zm8.75,0a1,1,0,1,1,1-1A1,1,0,0,1,16,13.5Zm2.5,2a1,1,0,1,1,1-1A1,1,0,0,1,18.5,15.5Zm0-4a1,1,0,1,1,1-1A1,1,0,0,1,18.5,11.5Zm2.5,2a1,1,0,1,1,1-1A1,1,0,0,1,21,13.5Z" fill="#000000" stroke="none" stroke-linecap="round" stroke-linejoin="round" stroke-width="0"></path></g></svg>