<svg xmlns="http://www.w3.org/2000/svg" version="1.1" xmlns:xlink="http://www.w3.org/1999/xlink" xmlns:svgjs="http://svgjs.com/svgjs" viewBox="0 0 140 140" width="140" height="140"><g transform="matrix(5.833333333333333,0,0,5.833333333333333,0,0)"><path d="M10.3,2.291,4.37,8.218a.249.249,0,0,1-.177.073H2a2,2,0,0,0-2,2v3.414a2,2,0,0,0,2,2H4.193a.25.25,0,0,1,.177.074L10.3,21.705A1,1,0,0,0,12,21V3A1,1,0,0,0,10.3,2.291Z" fill="#000000" stroke="none" stroke-linecap="round" stroke-linejoin="round" stroke-width="0"></path><path d="M17.59,4.966A1,1,0,0,0,16.176,6.38a7.944,7.944,0,0,1,0,11.239,1,1,0,0,0,1.414,1.414,9.943,9.943,0,0,0,0-14.067Z" fill="#000000" stroke="none" stroke-linecap="round" stroke-linejoin="round" stroke-width="0"></path><path d="M20.041,2.434a1,1,0,0,0-1.414,1.414,11.542,11.542,0,0,1,0,16.3,1,1,0,1,0,1.414,1.414A13.543,13.543,0,0,0,20.041,2.434Z" fill="#000000" stroke="none" stroke-linecap="round" stroke-linejoin="round" stroke-width="0"></path><path d="M15.141,7.5a1,1,0,1,0-1.416,1.413,4.379,4.379,0,0,1,0,6.179A1,1,0,1,0,15.14,16.5,6.382,6.382,0,0,0,15.141,7.5Z" fill="#000000" stroke="none" stroke-linecap="round" stroke-linejoin="round" stroke-width="0"></path></g></svg>