<svg xmlns="http://www.w3.org/2000/svg" version="1.1" xmlns:xlink="http://www.w3.org/1999/xlink" xmlns:svgjs="http://svgjs.com/svgjs" viewBox="0 0 140 140" width="140" height="140"><g transform="matrix(5.833333333333333,0,0,5.833333333333333,0,0)"><path d="M13.041,14.906a1.863,1.863,0,0,1-2.082,0,.751.751,0,0,0-.918,1.188,3.253,3.253,0,0,0,3.918,0,.751.751,0,0,0-.918-1.188Z" fill="#000000" stroke="none" stroke-linecap="round" stroke-linejoin="round" stroke-width="0"></path><path d="M13.000 12.500 A1.000 1.000 0 1 0 15.000 12.500 A1.000 1.000 0 1 0 13.000 12.500 Z" fill="#000000" stroke="none" stroke-linecap="round" stroke-linejoin="round" stroke-width="0"></path><path d="M9.000 12.500 A1.000 1.000 0 1 0 11.000 12.500 A1.000 1.000 0 1 0 9.000 12.500 Z" fill="#000000" stroke="none" stroke-linecap="round" stroke-linejoin="round" stroke-width="0"></path><path d="M6.5,22H2.25A.25.25,0,0,1,2,21.75V17.5a1,1,0,0,0-2,0V22a2,2,0,0,0,2,2H6.5a1,1,0,0,0,0-2Z" fill="#000000" stroke="none" stroke-linecap="round" stroke-linejoin="round" stroke-width="0"></path><path d="M1,7.5a1,1,0,0,0,1-1V2.25A.25.25,0,0,1,2.25,2H6.5a1,1,0,0,0,0-2H2A2,2,0,0,0,0,2V6.5A1,1,0,0,0,1,7.5Z" fill="#000000" stroke="none" stroke-linecap="round" stroke-linejoin="round" stroke-width="0"></path><path d="M23,16.5a1,1,0,0,0-1,1v4.25a.25.25,0,0,1-.25.25H17.5a1,1,0,0,0,0,2H22a2,2,0,0,0,2-2V17.5A1,1,0,0,0,23,16.5Z" fill="#000000" stroke="none" stroke-linecap="round" stroke-linejoin="round" stroke-width="0"></path><path d="M22,0H17.5a1,1,0,0,0,0,2h4.25a.25.25,0,0,1,.25.25V6.5a1,1,0,0,0,2,0V2A2,2,0,0,0,22,0Z" fill="#000000" stroke="none" stroke-linecap="round" stroke-linejoin="round" stroke-width="0"></path><path d="M20.947,15.606A4.364,4.364,0,0,1,19,12.883V10.5a7,7,0,0,0-14,0v2.383a4.364,4.364,0,0,1-1.947,2.723A1,1,0,0,0,3.947,17.4a5.108,5.108,0,0,0,1.717-1.421,7,7,0,0,0,12.672,0A5.108,5.108,0,0,0,20.053,17.4a1,1,0,1,0,.894-1.789ZM12,18a5.006,5.006,0,0,1-5-5V11a6.486,6.486,0,0,0,5-2.347A6.486,6.486,0,0,0,17,11v2A5.006,5.006,0,0,1,12,18Z" fill="#000000" stroke="none" stroke-linecap="round" stroke-linejoin="round" stroke-width="0"></path></g></svg>