<svg xmlns="http://www.w3.org/2000/svg" version="1.1" xmlns:xlink="http://www.w3.org/1999/xlink" xmlns:svgjs="http://svgjs.com/svgjs" viewBox="0 0 140 140" width="140" height="140"><g transform="matrix(5.833333333333333,0,0,5.833333333333333,0,0)"><path d="M23.431,23.153a1,1,0,0,0,0-1.414l-7.166-7.166,3.418-4.784A.5.5,0,0,0,19.276,9H11.9L13.764.606a.5.5,0,0,0-.895-.4L8.3,6.606,1.983.291A1,1,0,0,0,.569,1.705L22.083,23.2a.975.975,0,0,0,1.348-.044Z" fill="#000000" stroke="none" stroke-linecap="round" stroke-linejoin="round" stroke-width="0"></path><path d="M6.454,9.689a.25.25,0,0,0-.38.032l-3.2,4.487a.5.5,0,0,0,.407.79h7.376L8.788,23.39a.5.5,0,0,0,.284.565.505.505,0,0,0,.2.043.5.5,0,0,0,.407-.209l4.406-6.17a.249.249,0,0,0-.027-.322Z" fill="#000000" stroke="none" stroke-linecap="round" stroke-linejoin="round" stroke-width="0"></path></g></svg>