<svg xmlns="http://www.w3.org/2000/svg" version="1.1" xmlns:xlink="http://www.w3.org/1999/xlink" xmlns:svgjs="http://svgjs.com/svgjs" viewBox="0 0 140 140" width="140" height="140"><g transform="matrix(5.833333333333333,0,0,5.833333333333333,0,0)"><path d="M8.379,17.142A.469.469,0,0,1,8,16.683V16.25a.5.5,0,0,1,.5-.5h1a1,1,0,0,0,0-2h-5a1,1,0,0,0,0,2h1a.5.5,0,0,1,.5.5v.433a.467.467,0,0,1-.378.459A7.068,7.068,0,0,0,.014,22.835,1,1,0,0,0,1,24H13a1,1,0,0,0,.988-1.165A7.071,7.071,0,0,0,8.379,17.142Z" fill="#000000" stroke="none" stroke-linecap="round" stroke-linejoin="round" stroke-width="0"></path><path d="M23.075.093A.993.993,0,0,0,22,1.015l-.517,6.839a1.276,1.276,0,0,1-.586.979.262.262,0,0,1-.306-.06c-.482-.376-.992-.972-.959-3.291a1,1,0,0,0-1.8-.62l-5.011,6.6a1,1,0,0,1-.681.384,1.014,1.014,0,0,1-.749-.209,1.039,1.039,0,0,1-.164-1.468l2.676-3.638a1,1,0,0,0,.03-1.141L11.514,1.7a.88.88,0,0,1-.142-.6,1,1,0,0,0-.9-1.09.984.984,0,0,0-1.09.9,2.856,2.856,0,0,0,.47,1.907L11.7,5.62a.5.5,0,0,1-.015.57L9.64,8.964a3.035,3.035,0,0,0,.524,4.251,2.988,2.988,0,0,0,1.859.643,2.887,2.887,0,0,0,.36-.022,3.013,3.013,0,0,0,2.026-1.146l2.936-3.869a.5.5,0,0,1,.849.086,3.961,3.961,0,0,0,1.167,1.441,2.239,2.239,0,0,0,2.341.318A3.269,3.269,0,0,0,23.48,8.014L24,1.165A1,1,0,0,0,23.075.093Z" fill="#000000" stroke="none" stroke-linecap="round" stroke-linejoin="round" stroke-width="0"></path></g></svg>